<svg width="139" height="100" viewBox="0 0 139 100" fill="none" xmlns="http://www.w3.org/2000/svg">
<g clip-path="url(#clip0_421_1338)">
<path d="M22.7266 10.1238V69.6416C22.7266 71.3788 24.1088 72.7873 25.8137 72.7873H117.194C117.839 72.7873 118.364 72.2523 118.364 71.5948V9.72088C118.364 8.84097 117.662 8.12544 116.799 8.12544H24.6877C23.6059 8.12544 22.7266 9.02147 22.7266 10.1238Z" fill="#407BFF"/>
<path opacity="0.7" d="M22.7266 10.1238V69.6416C22.7266 71.3788 24.1088 72.7873 26.1838 72.7744H117.564C117.839 72.7873 118.361 72.2523 118.361 71.5948V9.72088C118.361 8.84097 117.659 8.12544 116.796 8.12544H24.6877C23.6059 8.12544 22.7266 9.02147 22.7266 10.1238Z" fill="white"/>
<path d="M24.2638 8.12544H117.137C117.814 8.12544 118.364 8.68626 118.364 9.37601V13.3146H22.7266V9.69187C22.7266 8.82808 23.4161 8.12544 24.2638 8.12544Z" fill="#407BFF"/>
<path opacity="0.3" d="M117.093 10.72C117.093 11.3292 116.609 11.8223 116.011 11.8223C115.413 11.8223 114.929 11.3292 114.929 10.72C114.929 10.1109 115.413 9.61774 116.011 9.61774C116.609 9.61774 117.093 10.1109 117.093 10.72Z" fill="white"/>
<path opacity="0.3" d="M114.015 10.72C114.015 11.3292 113.531 11.8223 112.933 11.8223C112.336 11.8223 111.852 11.3292 111.852 10.72C111.852 10.1109 112.336 9.61774 112.933 9.61774C113.531 9.61774 114.015 10.1109 114.015 10.72Z" fill="white"/>
<path opacity="0.3" d="M109.859 11.8223C110.457 11.8223 110.941 11.3288 110.941 10.72C110.941 10.1113 110.457 9.61774 109.859 9.61774C109.262 9.61774 108.777 10.1113 108.777 10.72C108.777 11.3288 109.262 11.8223 109.859 11.8223Z" fill="white"/>
<path d="M106.756 23.9186H34.3347C32.6298 23.9186 31.2476 22.5102 31.2476 20.7729C31.2476 19.0356 32.6298 17.6272 34.3347 17.6272H106.756C108.461 17.6272 109.843 19.0356 109.843 20.7729C109.843 22.5102 108.461 23.9186 106.756 23.9186Z" fill="white"/>
<path d="M106.48 20.6053C106.48 20.8954 106.392 21.1661 106.243 21.3885C105.997 21.7527 105.585 21.9945 105.117 21.9945C104.364 21.9945 103.754 21.3724 103.754 20.6053C103.754 19.8382 104.364 19.2161 105.117 19.2161C105.87 19.2161 106.48 19.8382 106.48 20.6053Z" stroke="#407BFF" stroke-miterlimit="10"/>
<path d="M107.097 22.3297L106.17 21.5883" stroke="#407BFF" stroke-linecap="round" stroke-linejoin="round"/>
<g opacity="0.4">
<path d="M103.454 65.3935C103.409 65.6224 103.267 65.8738 103.08 66.0317C102.944 66.1478 102.517 66.3766 102.47 66.0511C102.457 65.9608 102.552 65.5354 102.59 65.4483C102.694 65.1937 102.808 65.3613 102.979 65.3935C103.153 65.429 103.318 65.2646 103.457 65.3935H103.454Z" fill="white"/>
<path d="M102.293 38.8545C102.353 39.0737 102.394 39.2896 102.442 39.4927C102.277 39.7441 101.951 39.6506 101.711 39.786C101.597 39.8505 101.566 40.0793 101.458 40.1148C101.369 40.1438 101.303 40.0213 101.221 40.0245C101.006 40.031 100.901 40.4628 100.639 40.3533C100.49 40.4628 100.645 40.8819 100.458 40.9173C100.326 40.9431 100.256 40.7336 100.174 40.6079C100.079 40.4532 99.9397 40.3694 99.9366 40.2437C99.9334 40.1148 100.152 39.8956 100.218 39.8053C100.303 39.6957 100.468 39.4862 100.575 39.4572C100.775 39.4024 100.977 39.4798 101.129 39.4024C101.259 39.3348 101.268 39.0834 101.338 39.0189C101.398 38.9641 101.464 38.9802 101.518 38.9448C101.657 38.8545 101.806 38.5387 101.727 38.2131C101.676 38.0101 101.401 37.7877 101.578 37.5363C101.841 37.5717 102.192 37.8908 102.233 38.2131C102.249 38.3388 102.192 38.4645 102.201 38.5967C102.208 38.6708 102.265 38.7546 102.29 38.8513L102.293 38.8545Z" fill="white"/>
<path d="M102.353 36.8659C102.318 36.9593 102.252 36.94 102.189 36.9948C102.128 37.0463 102.056 37.2139 101.98 37.2333C101.86 37.2623 101.727 37.0882 101.607 37.1237C101.467 37.1656 101.55 37.2945 101.502 37.4525C101.379 37.4202 101.18 37.2526 101.173 37.0882C101.17 36.9851 101.281 36.9206 101.306 36.7949C101.35 36.5854 101.236 36.4823 101.173 36.2825C101.17 36.2535 101.189 36.2502 101.189 36.2277C101.335 36.189 101.622 36.5274 101.948 36.5919C102.16 36.6338 102.337 36.6112 102.35 36.8659H102.353Z" fill="white"/>
<path d="M101.799 55.3923C101.815 55.5437 101.597 55.5276 101.575 55.4277C101.578 55.3117 101.771 55.273 101.799 55.3923Z" fill="white"/>
<path d="M100.756 35.3317C100.904 35.4284 101.262 35.6443 101.009 35.8441C100.857 35.7765 100.699 35.5379 100.756 35.3317Z" fill="white"/>
<path d="M100.072 54.5897C100.243 54.4769 100.43 54.2255 100.727 54.3512C100.661 54.58 100.436 54.5736 100.294 54.68C100.151 54.7863 100.028 54.97 99.8477 54.9894C99.835 54.9571 99.8129 54.9314 99.7876 54.9152C99.7876 54.7122 99.9521 54.6638 100.072 54.5865V54.5897Z" fill="white"/>
<path d="M99.6675 51.1571C99.8415 51.1571 100.006 51.0926 100.129 51.1764C100.107 51.6341 99.5283 51.286 99.1456 51.3602C99.0633 51.3763 99.0412 51.4536 98.9526 51.4149C98.959 51.2602 99.095 51.1055 99.2373 51.0862C99.348 51.0733 99.5093 51.1571 99.6706 51.1603L99.6675 51.1571Z" fill="white"/>
<path d="M99.8163 51.7211C99.8321 51.9725 99.5506 52.0016 99.4747 52.1949C99.5981 52.427 99.6455 52.7493 99.7879 52.962C99.7815 53.1006 99.81 53.2843 99.7436 53.3456C99.4431 53.4165 99.2818 52.7558 99.1616 52.5237C98.9307 52.5753 99.1426 53.4745 98.8326 53.3617C98.6808 53.3069 98.8326 53.0491 98.801 52.8524C98.7725 52.6784 98.6333 52.6429 98.6207 52.5044C98.6112 52.3915 98.7219 52.2723 98.7535 52.1563C98.801 51.9919 98.7694 51.6728 98.9338 51.6631C99.0129 51.6599 99.1204 51.8694 99.1711 51.8823C99.3482 51.9306 99.5601 51.6599 99.8132 51.7179L99.8163 51.7211Z" fill="white"/>
<path d="M99.2658 54.4414C99.212 54.58 98.9052 54.5124 98.8799 54.3867C98.9305 54.2416 99.2405 54.2867 99.2658 54.4414Z" fill="white"/>
<path d="M98.9813 54.8798C98.9655 54.9056 98.9433 54.9314 98.9212 54.9539C98.8073 54.9088 98.6871 54.8766 98.6523 54.7348C98.7346 54.5833 98.975 54.709 98.9813 54.8798Z" fill="white"/>
<path d="M98.5796 54.4253C98.5037 54.5575 98.2412 54.4157 98.1463 54.5542C97.9913 54.551 97.8363 54.5478 97.8047 54.3899C97.849 54.2577 97.9913 54.348 98.102 54.3351C98.2823 54.3157 98.5322 54.161 98.5796 54.4253Z" fill="white"/>
<path d="M96.4792 61.4162C96.4792 61.2551 96.3969 61.1133 96.3748 60.9424C96.3685 60.8812 96.3811 60.8006 96.3748 60.7233C96.3653 60.6105 96.3179 60.517 96.3305 60.4493C96.3526 60.3301 96.4665 60.3172 96.495 60.2108C96.5424 60.04 96.4381 60.0142 96.4349 59.8079C96.4349 59.6629 96.5235 59.5952 96.5836 59.405C96.612 59.318 96.612 59.1568 96.6437 59.0956C96.6816 59.0183 96.8461 58.9506 96.9125 58.9151C97.1403 58.7765 97.3237 58.5219 97.5546 58.4768C97.6115 58.4639 97.6906 58.4864 97.7349 58.4768C97.8709 58.4478 98.0385 58.3092 98.2283 58.2576C98.4086 58.206 98.5699 58.2254 98.706 58.1287C98.8546 58.0223 99.0665 57.7451 99.1235 57.5807C99.1931 57.3809 99.1709 57.2101 99.3038 57.1424C99.367 57.1102 99.4303 57.1424 99.4967 57.1231C99.5663 57.1005 99.715 57.0135 99.7656 56.9587C99.87 56.8459 99.8858 56.6589 100.003 56.5397C100.085 56.4559 100.237 56.3302 100.348 56.2657C100.411 56.227 100.528 56.1851 100.585 56.1916C100.797 56.2142 100.892 56.5719 101.123 56.501C101.205 56.4752 101.287 56.2625 101.363 56.1368C101.47 55.9499 101.55 55.6985 101.736 55.6437C101.888 55.5985 102.056 55.7146 102.138 55.5534C102.157 55.4374 102.068 55.3697 102.138 55.2988C102.312 55.3117 102.606 55.5985 102.869 55.6082C103.011 55.6147 103.273 55.418 103.302 55.6823C103.315 55.7984 103.194 55.8918 103.169 56.0111C103.15 56.0949 103.197 56.14 103.153 56.2303C103.033 56.2883 102.903 56.3205 102.9 56.4849C102.897 56.6944 103.141 56.7911 103.286 56.9039C103.387 56.9813 103.47 57.1005 103.523 57.1424C103.571 57.1746 103.64 57.1908 103.672 57.2165C103.77 57.2939 103.836 57.4679 103.969 57.4712C104.121 57.4744 104.273 57.2391 104.355 57.0135C104.453 56.7492 104.46 56.4333 104.504 56.1561C104.52 56.0627 104.573 55.9724 104.592 55.8822C104.649 55.634 104.728 55.2956 104.906 55.2053C105.083 55.4374 105.143 55.8854 105.114 56.2657C105.234 56.3753 105.443 56.3399 105.472 56.5945C105.481 56.6815 105.437 56.7943 105.443 56.8846C105.453 57.0393 105.548 57.1714 105.563 57.3036C105.592 57.5453 105.532 57.7484 105.624 57.9256C105.741 58.148 105.968 58.1416 106.117 58.3833C106.117 58.5316 106.164 58.5928 106.193 58.7121C106.206 58.7669 106.193 58.8603 106.209 58.8958C106.256 59.0183 106.386 59.0311 106.433 59.1311C106.455 59.1826 106.449 59.2761 106.478 59.3696C106.519 59.5049 106.617 59.6049 106.686 59.7338C106.753 59.8595 106.863 59.9981 106.879 60.098C106.908 60.2785 106.8 60.4042 106.775 60.5524C106.743 60.7329 106.775 60.9682 106.715 61.1552C106.645 61.3743 106.474 61.5903 106.342 61.8675C106.231 62.0931 106.082 62.3509 105.924 62.5056C105.829 62.5991 105.718 62.6507 105.627 62.7442C105.484 62.886 105.367 63.0729 105.241 63.2373C105.108 63.4113 104.943 63.5435 104.839 63.6918C104.687 63.9077 104.611 64.259 104.349 64.2945C104.194 64.3138 104.058 64.2977 103.915 64.3686C103.694 64.475 103.549 64.6748 103.438 64.678C103.324 64.6812 103.216 64.5136 103.109 64.4943C102.989 64.475 102.897 64.6039 102.72 64.6039C102.65 64.6039 102.612 64.5523 102.511 64.5136C102.299 64.4298 102.065 64.4331 102.033 64.1494C102.018 63.9947 102.116 63.9238 102.106 63.7852C102.1 63.6466 101.989 63.6112 101.942 63.4919C101.97 63.3662 101.977 63.2083 101.866 63.1277C101.863 63.0149 101.885 62.9343 101.926 62.8731C101.841 62.9182 101.727 62.9472 101.629 63.0181C101.521 63.0987 101.442 63.2824 101.315 63.2566C101.198 63.2051 101.287 63.0632 101.271 62.9472C101.259 62.8602 101.094 62.4799 101.018 62.4186C100.933 62.3477 100.616 62.2027 100.512 62.1801C100.05 62.0931 99.7561 62.3928 99.3923 62.438C99.2974 62.4476 99.1962 62.4186 99.1108 62.438C98.8103 62.5024 98.4782 62.7925 98.2916 62.9859C97.9848 63.0246 97.6716 62.9085 97.3522 63.0213C97.0359 63.1342 96.8556 63.4565 96.3685 63.3662C96.2736 63.2663 96.0996 63.2147 96.0996 63.0375C96.0996 62.8989 96.2672 62.8086 96.3242 62.7087C96.3843 62.6023 96.4823 62.3509 96.4887 62.1962C96.4887 62.0738 96.4222 61.9287 96.4286 61.7772C96.4349 61.658 96.4887 61.529 96.4887 61.413L96.4792 61.4162Z" fill="white"/>
<path d="M96.2232 53.8033C96.3055 53.7904 96.3656 53.7162 96.4478 53.713C96.6218 53.7034 96.7926 53.871 96.9982 53.8387C97.0425 53.8967 97.014 53.9483 97.014 54.0418C97.188 54.1546 97.4758 54.1353 97.5644 54.3512C97.4347 54.522 97.2386 54.3995 97.071 54.3705C96.9191 54.3448 96.7578 54.3576 96.5933 54.3351C96.3846 54.3061 96.1948 54.1643 95.9987 54.1353C95.8785 54.1159 95.7551 54.1578 95.6412 54.1353C95.5084 54.1095 95.0086 53.8774 94.9992 53.7162C94.9928 53.5486 95.2237 53.5003 95.4325 53.5325C95.7013 53.5744 95.8785 53.8645 96.2232 53.8065V53.8033Z" fill="white"/>
<path d="M96.6277 52.5463C96.5139 52.5076 96.4095 52.5301 96.3589 52.4915C96.2577 52.4141 96.2703 52.1949 96.2387 52.0725C96.207 51.9468 96.0837 51.8791 96.0141 51.7082C95.916 51.4601 95.8749 50.9025 96.1343 50.8509C96.2387 50.8283 96.3462 50.9283 96.419 50.9057C96.5613 50.8638 96.536 50.635 96.6562 50.5415C96.7226 50.4899 96.846 50.5125 96.9409 50.4674C97.0389 50.4222 97.1117 50.3094 97.1781 50.2127C97.2414 50.1225 97.2888 49.9678 97.371 49.9033C97.4628 49.8292 97.5482 49.826 97.6241 49.7583C97.8202 49.5746 97.8265 49.3199 97.9815 49.1008C98.1144 48.9138 98.3231 49.2813 98.3389 49.4295C98.4117 49.5455 98.5572 49.5746 98.6205 49.7035C98.5319 50.0258 98.2852 50.0516 98.3389 50.506C98.3484 50.5802 98.3895 50.7188 98.4275 50.8155C98.4686 50.9218 98.5951 51.0378 98.592 51.1088C98.5825 51.2441 98.3579 51.2377 98.3073 51.3827C98.263 51.5149 98.3105 51.5245 98.2915 51.7308C98.2282 51.8791 98.0606 51.9145 98.0068 52.095C97.9436 52.311 98.0163 52.5914 97.874 52.7525C97.7759 52.7461 97.6652 52.8589 97.545 52.8428C97.4153 52.8267 97.2888 52.6075 97.0832 52.6043C97.0041 52.6043 96.9092 52.6655 96.8302 52.6591C96.7669 52.6526 96.7163 52.5817 96.6214 52.5495L96.6277 52.5463Z" fill="white"/>
<path d="M95.6631 52.1369C96.0427 52.1369 96.0427 52.8589 95.6631 52.8589C95.2835 52.8589 95.2835 52.1369 95.6631 52.1369Z" fill="white"/>
<path d="M95.1066 52.0499C95.1541 52.0563 95.3185 52.34 95.3154 52.4141C95.309 52.543 95.1541 52.5366 95.1066 52.7074C95.037 52.9685 95.1382 53.2682 95.018 53.4004C94.9516 53.4519 94.8283 53.4358 94.7207 53.4358C94.4519 53.2038 94.2368 52.9266 94.0059 52.6139C93.9205 52.5011 93.8193 52.4012 93.7686 52.2852C93.6896 52.1111 93.6643 51.9178 93.5757 51.7566C93.4966 51.6148 93.3543 51.5116 93.2784 51.3537C93.2151 51.2248 93.2088 51.0572 93.1455 50.9347C93.0823 50.8187 92.981 50.7703 92.9051 50.6801C92.8577 50.6188 92.8292 50.5254 92.7849 50.4609C92.5983 50.1869 92.2377 50.0419 92.2188 49.639C92.2947 49.5327 92.3737 49.6777 92.5161 49.7132C92.6078 49.7357 92.7185 49.7035 92.7849 49.7325C92.9209 49.7873 93.0127 50.0484 93.1582 50.1902C93.2373 50.2707 93.3448 50.3255 93.427 50.4093C93.5156 50.4996 93.5789 50.6317 93.6516 50.6833C93.7497 50.7574 93.8825 50.8026 94.009 50.9025C94.183 51.0378 94.4898 51.1764 94.5309 51.4504C94.5404 51.5181 94.5056 51.6341 94.5151 51.6857C94.5373 51.7824 94.6353 51.8243 94.6954 51.9049C94.7682 52.008 94.784 52.1595 94.8884 52.1788C94.9927 52.2143 94.9991 52.0338 95.1129 52.0499H95.1066Z" fill="white"/>
<path d="M88.0687 48.2176C88.1984 48.2692 88.6254 48.9074 88.5021 49.2587C88.4673 49.3586 88.3186 49.4875 88.1731 49.4585C87.879 49.4005 87.9359 48.598 88.0245 48.2724C88.0339 48.2466 88.0466 48.2273 88.0687 48.2176Z" fill="white"/>
<path d="M78.1556 57.455C78.1683 57.3068 78.2537 57.0683 78.3486 56.9813C78.4846 56.8556 78.6712 56.8684 78.8104 56.7814C78.9242 56.7073 79.0824 56.588 79.1678 56.4527C79.2405 56.3399 79.2437 56.2077 79.3006 56.1239C79.3418 56.0659 79.4303 56.0498 79.4778 55.9789C79.5221 55.9144 79.5126 55.7952 79.5822 55.7242C79.7878 55.6147 79.8478 56.0788 79.8795 56.3979C79.889 56.4978 79.9301 56.6042 79.9238 56.6525C79.9016 56.7975 79.7719 56.8298 79.7308 56.9265C79.7213 57.3261 79.5916 57.6742 79.4778 58.003C79.3797 58.2866 79.3196 58.5993 79.2405 58.8442C79.2121 58.9345 79.1488 59.0021 79.1203 59.0827C79.0128 59.3921 78.9717 59.882 78.7756 60.0142C78.706 60.0625 78.434 60.1431 78.3581 60.1431C78.1746 60.1399 78.0164 59.9723 77.9722 59.7789C77.9469 59.6758 77.9722 59.5662 77.9563 59.4502C77.9374 59.3051 77.8678 59.1794 77.8804 59.0118C77.9121 58.6412 78.2094 58.4607 78.222 58.1545C78.2315 57.9224 78.1271 57.6936 78.1461 57.4615L78.1556 57.455Z" fill="white"/>
<path d="M70.9692 31.4801C70.985 31.7862 70.5865 31.7476 70.5359 32.0086C70.5137 32.1279 70.5833 32.2858 70.5675 32.3922C70.5359 32.5824 70.3872 32.5276 70.1943 32.6307C70.0962 32.6823 70.0013 32.8724 69.8969 32.8853C69.7989 32.8982 69.7388 32.8144 69.6724 32.8305C69.5743 32.8531 69.6059 33.0014 69.4636 33.0304C69.3497 33.0562 69.1473 32.9047 69.1347 33.0852C69.1252 33.2012 69.3149 33.2624 69.432 33.2495C69.5269 33.2399 69.5933 33.1593 69.685 33.1593C69.8622 33.1593 69.976 33.3204 70.0867 33.3237C70.3429 33.3333 70.5928 33.0336 70.8617 33.069C70.9819 33.0852 71.0546 33.1883 71.1432 33.1786C71.2855 33.1625 71.4089 32.9595 71.5164 32.8853C71.4721 32.5791 71.5196 32.173 71.7537 32.1537C71.915 32.1408 72.1554 32.4921 72.187 32.1537C72.1996 32.0086 72.0605 31.8765 71.9624 31.8797C71.877 31.8797 71.7631 32.0892 71.6936 31.9152C71.6936 31.7476 71.8485 31.7927 71.9308 31.7508C71.994 31.7186 72.0383 31.6348 72.1111 31.6058C72.4653 31.4543 72.9588 31.754 73.0948 31.3866C72.7816 31.0578 72.2439 31.5058 71.8865 31.4768C71.7347 31.4639 71.5322 31.3253 71.4848 31.1481C71.469 31.0933 71.4848 31.0159 71.469 30.9096C71.4563 30.7935 71.4057 30.6711 71.4089 30.6001C71.4247 30.2714 72.0953 30.2069 72.0953 29.7976C71.9687 29.6461 71.5923 29.6719 71.469 29.833C71.4247 29.8911 71.4279 30.0071 71.3646 30.1264C71.2318 30.3745 70.7984 30.4068 70.6624 30.7097C70.6308 30.7774 70.5802 30.9644 70.6023 31.0739C70.6371 31.248 70.9502 31.2931 70.9597 31.4768L70.9692 31.4801ZM67.4203 49.3328C66.9901 49.2555 66.5504 49.4682 66.2563 49.6229C66.0855 49.7132 65.9147 49.8517 65.7628 49.8614C65.6205 49.8711 65.4813 49.7679 65.3453 49.7518C65.1682 49.7293 64.9405 49.7518 64.7633 49.7873C64.5925 49.826 64.4375 49.9742 64.2857 49.9871C63.9979 50.0129 63.7227 49.668 63.5392 49.494C63.4285 49.3876 63.3147 49.3006 63.2103 49.2007C63.0996 49.0943 62.9541 49.0299 62.8687 48.9267C62.7516 48.7881 62.7516 48.5464 62.6884 48.3594C62.6156 48.1403 62.3942 47.9823 62.2266 47.7761C62.1 47.6214 61.8122 47.3893 61.7806 47.1927C61.7648 47.0928 61.8154 46.9735 61.809 46.8639C61.8027 46.7028 61.7015 46.6125 61.7047 46.4997C61.7047 46.3386 61.8628 46.2161 61.8976 46.0807C61.9166 46.013 61.9071 45.9131 61.9261 45.8261C61.9672 45.6424 62.0684 45.5296 62.0463 45.2588C62.0368 45.1525 61.9609 45.0525 61.9577 44.9107C61.9577 44.814 62.0083 44.7625 62.002 44.6722C61.9893 44.5175 61.8249 44.4853 61.809 44.308C61.7932 44.1243 61.9545 43.9696 62.0463 43.7601C62.0874 43.6666 62.1127 43.5216 62.1507 43.4507C62.2329 43.2959 62.3689 43.2218 62.4353 43.0671C62.4828 42.9543 62.4986 42.7867 62.5397 42.7029C62.5935 42.5933 62.7042 42.5353 62.8086 42.3935C62.894 42.2774 62.9288 42.1356 62.9889 42.0841C63.0648 42.0164 63.1755 42.0003 63.2577 41.9551C63.5329 41.8004 63.7353 41.6038 63.8682 41.2783C63.8271 40.985 63.8903 40.8593 63.9884 40.6562C64.0801 40.4693 64.1465 40.2888 64.3015 40.1824C64.4881 40.0535 64.6621 40.0406 64.7918 39.7989C64.8582 39.6764 64.9563 39.4669 64.9563 39.3412C64.9563 39.1607 64.8044 38.9286 64.6716 38.9029C64.5356 38.8771 64.33 39.0286 64.2541 38.8481C64.2288 38.7901 64.2636 38.6547 64.2541 38.5934C64.2383 38.4742 64.1529 38.3904 64.1497 38.3001C64.1434 38.1293 64.2889 37.9488 64.33 37.7522C64.3869 37.4815 64.33 37.2784 64.3142 36.9658C64.5229 36.5629 64.9847 36.7627 65.4465 36.8014C65.5161 36.8078 65.5952 36.7821 65.6711 36.7821C65.9463 36.7885 66.1614 36.8916 66.2531 36.5983C66.2879 36.4888 66.3195 36.0794 66.2974 35.9763C66.2721 35.8538 66.076 35.5379 65.9843 35.467C65.8356 35.351 65.6205 35.4026 65.5383 35.1931C65.6079 34.8321 65.9368 35.1318 66.1361 35.048C66.2373 35.0029 66.2247 34.7902 66.3164 34.7547C66.3765 34.7322 66.4556 34.8289 66.541 34.8289C66.6137 34.8289 66.8762 34.6677 66.9427 34.6097C67.0376 34.5323 67.066 34.368 67.1514 34.3003C67.2084 34.2551 67.2843 34.2616 67.3444 34.2261C67.4709 34.1585 67.6322 34.0231 67.7176 33.8974C67.841 33.7169 67.8947 33.4913 68.0466 33.459C68.2458 33.4139 68.6982 33.5074 68.7329 33.2399C68.7646 32.9852 68.5495 32.7854 68.6286 32.5082C68.6918 32.2923 68.85 32.3277 69.0746 32.1988C69.1821 32.2923 69.1505 32.563 69.1631 32.7274C69.3023 32.7274 69.5838 32.6758 69.6091 32.5276C69.6439 32.3406 69.4067 32.1472 69.3561 32.0344C69.2991 31.9119 69.2896 31.696 69.1758 31.6702C68.948 31.6154 68.7266 32.0538 68.4451 32.0538C68.2585 32.0538 68.0624 31.8797 68.0118 31.7057C67.9833 31.609 68.0118 31.5155 67.996 31.4124C67.977 31.2641 67.9042 31.1094 67.9359 30.9031C68.0497 30.6646 68.3123 30.6259 68.502 30.5002C68.5748 30.4551 68.6317 30.3552 68.7108 30.3165C68.8437 30.2553 69.0429 30.3165 69.1726 30.2263C69.2549 30.1683 69.2327 30.0683 69.2928 29.9523C69.3308 29.8782 69.4225 29.8363 69.4731 29.7525C69.5079 29.6945 69.5111 29.6042 69.549 29.5526C69.6787 29.356 69.9159 29.2819 70.0108 29.0788C70.0519 28.9886 69.9381 28.9564 69.9665 28.8242C70.014 28.6985 70.2006 28.792 70.3081 28.7694C70.4568 28.7404 70.5928 28.5212 70.7541 28.4761C70.9218 28.431 71.1052 28.46 71.2602 28.3859C71.3551 28.3408 71.4405 28.2376 71.5291 28.2215C71.5607 28.215 71.6493 28.2408 71.6936 28.2408C71.7505 28.2408 71.8106 28.1957 71.8865 28.186C71.9972 28.1731 72.1332 28.2183 72.2756 28.2215C72.5096 28.2279 72.7342 28.1345 72.9303 28.2408C73.0315 28.2956 73.022 28.4374 73.1549 28.4955C73.2213 28.5245 73.3099 28.4826 73.4079 28.4955C73.5534 28.5116 73.7053 28.6373 73.9014 28.6598C73.9709 28.6695 74.0405 28.6502 74.1101 28.6598C74.322 28.6921 74.5561 28.8274 74.768 28.9145C74.942 28.9854 75.3121 29.0756 75.3184 29.2787C75.3279 29.5172 74.9958 29.5881 74.8566 29.5881C74.6225 29.5881 74.3126 29.4205 74.0658 29.514C74.069 29.9265 74.4328 30.2392 74.768 30.1908C74.7965 29.9974 74.5783 30.1038 74.6036 29.9168C74.7522 29.7783 74.9294 30.0103 75.1413 29.9716C75.2235 29.9459 75.2109 29.8008 75.2298 29.6977C75.407 29.5655 75.6284 29.3721 75.9004 29.514C75.9131 29.4817 75.9352 29.4559 75.9605 29.4398C75.9795 29.24 75.7802 29.1336 75.8846 28.9467C75.9352 28.8178 76.2135 28.8629 76.2578 28.966C76.28 29.0885 76.1882 29.0756 76.1977 29.1852C76.2515 29.3302 76.3717 29.3528 76.435 29.3496C76.5805 29.3399 76.6089 29.1788 76.7481 29.095C76.805 29.0595 76.8841 29.0563 76.9569 29.0208C77.0423 28.9789 77.1119 28.8983 77.1814 28.8758C77.232 28.8597 77.3048 28.8758 77.3744 28.8564C77.4629 28.8339 77.5547 28.7469 77.6274 28.7469C77.716 28.7469 77.7824 28.8726 77.8963 28.8919C77.9596 28.9016 78.0291 28.85 78.1209 28.8371C78.1936 28.8274 78.2695 28.8468 78.3296 28.8371C78.472 28.8113 78.57 28.7211 78.687 28.7275C78.7693 28.734 78.9116 28.8693 78.9717 28.8017C79.0666 28.6856 78.842 28.5986 78.9116 28.4922C79.1394 28.5148 79.3829 28.5084 79.6138 28.547C79.9554 28.605 80.2749 28.8145 80.5817 28.821C80.5532 28.5664 80.316 28.6405 80.2085 28.5277C80.1768 28.4922 80.044 28.2247 80.044 28.1441C80.044 28.1022 80.2116 27.7509 80.2528 27.7058C80.3856 27.5543 80.8158 27.5543 80.9391 27.7606C81.0245 27.8992 80.9961 28.1119 81.1194 28.1087C81.2238 28.1055 81.2807 27.7864 81.4041 27.7799C81.5053 27.7735 81.5559 27.983 81.6571 27.9798C81.7805 27.9798 81.8659 27.6961 82.0304 27.6865C82.119 27.6832 82.1474 27.7413 82.2834 27.7606C82.3783 27.6865 82.2518 27.5898 82.2992 27.4866C82.4669 27.3384 82.8465 27.4512 83.0584 27.3577C83.1185 27.2707 82.9825 27.2094 83.0426 27.1192C83.226 26.9613 83.536 26.9484 83.8491 26.8839C84.0389 26.8452 84.2192 26.6809 84.371 26.6647C84.5292 26.6486 84.6779 26.7775 84.817 26.7743C84.9024 26.7743 85.0036 26.7421 85.0859 26.7002C85.1713 26.6615 85.2282 26.5616 85.3105 26.5358C85.4401 26.4971 85.6078 26.5552 85.7565 26.5358C85.9178 26.5165 86.0569 26.4391 86.174 26.4617C86.2815 26.4842 86.3701 26.6228 86.4713 26.6454C86.7844 26.7066 87.1102 26.5874 87.3949 26.6809C87.4455 26.697 87.4993 26.7614 87.5594 26.7904C87.7523 26.8775 87.882 26.8485 87.9168 27.1385C88.0686 27.203 88.1572 27.3738 88.3343 27.4318C88.4545 27.4705 88.5716 27.4125 88.7076 27.4125C88.8847 27.4125 89.1093 27.4222 89.2579 27.448C89.3433 27.4641 89.4129 27.5414 89.4952 27.5575C89.5553 27.5704 89.6343 27.5511 89.7039 27.5575C89.7957 27.5672 89.8811 27.6156 89.957 27.6123C90.112 27.6059 90.2322 27.4351 90.3587 27.4125C90.4283 27.3996 90.5168 27.4415 90.5833 27.448C90.8331 27.4737 91.1241 27.4093 91.3297 27.4673C91.4404 27.4995 91.6271 27.6478 91.7473 27.7606C91.8358 27.8412 91.8896 27.9733 91.9718 28.0346C92.0509 28.0926 92.2502 28.1957 92.3293 28.1796C92.4242 28.1603 92.4273 28.0313 92.5222 27.9798C92.8195 27.8992 93.3414 28.0958 93.5818 27.9604C93.6735 27.9089 93.6546 27.7896 93.7305 27.7219C94.1765 27.6961 94.6225 27.7445 95.0432 27.7574C95.1918 27.7638 95.3436 27.7122 95.4765 27.738C95.6252 27.7703 95.7327 27.9508 95.8782 28.012C95.9762 28.0539 96.1471 28.0313 96.2957 28.0668C96.3938 28.0893 96.476 28.1635 96.5488 28.1764C96.7069 28.2054 96.8587 28.1538 97.0106 28.1409C97.3522 28.1087 97.7918 28.0861 98.1303 28.2505C98.3106 28.3375 98.3833 28.518 98.5763 28.5438C98.8515 28.5825 99.2785 28.5148 99.56 28.5438C99.6264 28.5503 99.6897 28.5857 99.7403 28.5793C99.8352 28.5696 99.8921 28.4729 100.009 28.4697C100.158 28.4665 100.392 28.7501 100.607 28.7082C100.699 28.6308 100.534 28.5245 100.623 28.4536C100.708 28.3698 100.822 28.4536 100.952 28.4536C101.021 28.4536 101.11 28.4084 101.176 28.4181C101.341 28.4342 101.496 28.6147 101.698 28.6727C101.86 28.7179 102.081 28.7372 102.28 28.7082C102.423 28.6888 102.546 28.6308 102.682 28.6534C102.748 28.6631 102.805 28.7243 102.875 28.7436C102.938 28.763 103.001 28.7436 103.055 28.763C103.106 28.7791 103.153 28.8371 103.204 28.8532C103.482 28.9499 103.849 28.9983 104.143 29.1078C104.317 29.1723 104.491 29.3045 104.637 29.3077C104.706 29.3077 104.77 29.269 104.861 29.2722C105.31 29.2755 105.842 29.5043 105.801 30.02C105.272 30.1618 104.833 29.5752 104.279 29.746C104.191 29.7718 104.093 29.8911 104.102 30.0006C104.121 30.3197 104.776 30.2907 104.833 30.6034C104.725 30.7001 104.608 30.6098 104.52 30.6227C104.387 30.642 104.159 30.8161 104.074 30.916C103.972 31.032 103.884 31.3286 103.776 31.3544C103.643 31.3866 103.441 31.1932 103.239 31.2448C103.166 31.2641 103.096 31.3769 103.03 31.3898C102.865 31.4285 102.657 31.2802 102.552 31.5187C102.606 31.6863 102.574 31.9184 102.685 32.0119C102.758 32.0731 102.85 32.0248 102.938 32.0667C103.042 32.115 103.099 32.2697 103.191 32.36C103.264 32.4309 103.343 32.4341 103.384 32.5243C103.394 32.6597 103.34 32.6726 103.352 32.7628C103.375 32.9143 103.571 32.9498 103.577 33.0562C103.583 33.1883 103.454 33.1593 103.428 33.2947C103.419 33.3785 103.507 33.401 103.517 33.5138C103.523 33.588 103.466 33.6653 103.473 33.7523C103.479 33.8748 103.558 33.9554 103.545 34.0618C103.536 34.1552 103.473 34.2261 103.409 34.2616C103.125 34.036 102.865 33.7266 102.559 33.4397C102.245 33.1432 101.746 32.7822 101.695 32.1634C101.695 32.0699 101.86 31.9925 101.888 31.8539C101.901 31.7959 101.869 31.7153 101.872 31.6348C101.882 31.422 102.027 31.2158 102.021 31.0868C102.015 30.9482 101.799 30.6872 101.692 30.6485C101.606 30.7033 101.692 30.8161 101.676 30.9031C101.66 31.0127 101.55 31.1481 101.451 31.1577C101.17 31.1868 101.138 30.713 100.692 30.8483C100.575 30.8838 100.414 31.0965 100.455 31.3608C100.468 31.4414 100.648 31.5252 100.635 31.6348C100.623 31.7411 100.231 31.7701 100.142 31.7637C99.9016 31.7411 99.7782 31.5187 99.56 31.5252C99.4524 31.5252 99.3607 31.6348 99.2753 31.6541C98.8072 31.7605 98.1081 31.3705 97.95 31.8733C97.9279 31.9442 97.9405 32.0376 97.9184 32.1118C97.8899 32.2181 97.8203 32.2987 97.7982 32.3664C97.7792 32.4212 97.7823 32.534 97.7539 32.621C97.7254 32.7016 97.4439 33.011 97.6938 33.0948C97.7539 33.1142 97.7824 33.0626 97.8583 33.0755C97.9848 33.0981 98.1999 33.3495 98.3485 33.3495C98.4371 33.3495 98.5636 33.227 98.6332 33.2205C98.7724 33.2109 98.8704 33.3204 98.9748 33.3849C99.076 33.4461 99.2279 33.5718 99.3038 33.5686C99.443 33.559 99.3765 33.4397 99.5125 33.3849C99.7719 33.4784 99.8921 33.8136 100.139 34.0779C100.227 34.1746 100.36 34.2551 100.48 34.3873C100.547 34.4614 100.756 34.658 100.765 34.7515C100.771 34.8385 100.708 34.8772 100.689 34.9513C100.664 35.0609 100.721 35.1447 100.661 35.2253C100.423 35.1189 100.37 34.8289 100.199 34.5871C100.136 34.4969 100.072 34.3873 99.9743 34.2584C99.9301 34.2004 99.7719 33.9941 99.677 34.0392C99.4904 34.1262 99.7814 34.4743 99.8257 34.5517C99.9237 34.7128 100.057 34.9288 100.066 35.0996C100.072 35.2092 100.009 35.4058 100.006 35.5927C100.006 35.7184 100.031 35.8312 100.022 35.9408C100.009 36.0472 99.949 36.1697 99.9174 36.2889C99.8826 36.4211 99.8731 36.5822 99.8447 36.6725C99.7877 36.8369 99.5916 37.0302 99.4556 37.0367C99.3322 37.0431 99.2785 36.9207 99.1583 36.9271C98.9748 36.9368 98.94 37.143 98.8293 37.3106C98.8388 37.4911 98.8863 37.5524 98.8578 37.6749C98.8167 37.8682 98.5984 37.9005 98.6047 38.0939C98.6111 38.2711 98.8072 38.3066 98.9021 38.3872C99.0349 38.4967 99.269 38.7353 99.3955 38.9351C99.4777 39.064 99.5979 39.309 99.5885 39.4443C99.5758 39.6248 99.152 39.8762 98.978 39.8086C98.8103 39.7441 98.8673 39.5507 98.8293 39.3702C98.7977 39.2316 98.7091 39.1736 98.6648 39.0608C98.6395 39.0028 98.6522 38.9093 98.6206 38.8416C98.532 38.6547 98.3738 38.7578 98.1872 38.6418C98.067 38.5644 98.1018 38.4033 98.0544 38.2582C97.9911 38.0616 97.7191 37.9682 97.504 38.0197C97.3459 38.0584 97.2952 38.2228 97.1466 38.2582C96.9283 38.1003 97.1909 37.7071 96.922 37.6749C96.7164 37.6491 96.5804 38.0358 96.4602 38.1487C96.378 38.226 96.2325 38.2389 96.223 38.3485C96.204 38.5483 96.3969 38.5096 96.5519 38.587C96.6911 38.6579 96.7069 38.8513 96.8366 38.861C96.9441 38.8706 97.0137 38.7256 97.1213 38.7159C97.3047 38.6966 97.4534 38.7965 97.5673 38.8803C97.4913 39.1027 97.0928 39.2638 97.0896 39.5572C97.0896 39.7248 97.251 39.757 97.3743 39.8666C97.4787 39.96 97.6147 40.2276 97.7634 40.4145C97.8266 40.4951 97.9279 40.5466 97.9563 40.5982C98.0259 40.7175 98.0132 40.8657 98.0892 40.9463C98.1018 41.0462 98.0512 41.072 98.0607 41.1655C98.0987 41.2976 98.2631 41.2718 98.2979 41.404C98.2663 41.7199 98.3738 42.0164 98.1651 42.1356C98.067 42.6997 97.9595 43.1412 97.6432 43.4507C97.3585 43.7278 96.9853 43.8084 96.6437 43.9438C96.5551 43.9792 96.4855 44.0921 96.4064 44.1275C96.2072 44.2113 95.8561 44.1597 95.8402 44.4563C95.8308 44.6013 95.9921 44.6916 96.0047 44.8398C96.0237 45.0687 95.8561 45.2975 95.7359 45.3136C95.6505 45.3265 95.4638 45.2524 95.4512 45.059C95.4385 44.8398 95.6726 44.7528 95.6884 44.6206C95.72 44.3886 95.5239 44.163 95.3025 44.1823C95.1064 44.2016 94.6573 44.6851 94.6478 44.9494C94.6383 45.146 94.9672 45.5586 95.0811 45.681C95.4986 46.1323 95.9446 46.403 95.8719 47.5053C95.7675 47.7857 95.4986 47.8437 95.2899 47.9985C95.1317 48.1145 95.0526 48.4787 94.7838 48.5109C94.6762 48.4658 94.7395 48.2595 94.7079 48.1628C94.6668 48.0307 94.4548 47.9694 94.322 47.8341C94.2144 47.7245 94.167 47.5504 94.0848 47.4505C93.9804 47.3248 93.8254 47.299 93.6957 47.212C93.6166 47.1572 93.5534 46.9703 93.4711 46.9735C93.3383 46.98 93.3857 47.1347 93.3509 47.3925C93.3193 47.6471 93.1675 47.8405 93.2181 48.1403C93.2402 48.2628 93.3636 48.3627 93.4268 48.4884C93.5312 48.6946 93.5439 48.9364 93.6514 49.0556C93.721 49.133 93.8412 49.1491 93.9203 49.22C94.0784 49.3586 94.3568 49.6584 94.4137 49.8227C94.477 50.0161 94.4137 50.2417 94.458 50.4448C94.5086 50.6801 94.7585 50.8445 94.6067 51.083C94.4643 51.0507 94.341 50.9347 94.2176 50.8445C94.012 50.6897 93.9171 50.5544 93.7843 50.2965C93.7463 50.2224 93.6862 50.1483 93.6641 50.0774C93.6135 49.913 93.6229 49.7293 93.5755 49.5294C93.5344 49.3586 93.3731 49.0879 93.2465 48.946C93.1422 48.8268 92.9555 48.7559 92.9492 48.5818C92.9397 48.3369 93.0156 48.05 93.0093 47.7599C93.0093 47.6987 92.9714 47.6342 92.965 47.5601C92.9492 47.4215 92.9777 47.2475 92.9492 47.1218C92.9239 47.0057 92.8543 46.8994 92.8164 46.793C92.7753 46.6867 92.7373 46.5835 92.6962 46.4449C92.6361 46.2354 92.5665 45.8261 92.4273 45.8067C92.2787 45.7842 92.13 46.1484 91.9339 46.1548C91.8327 46.1548 91.6998 46.0582 91.6808 45.9357C91.6619 45.8229 91.7283 45.7101 91.7251 45.5876C91.7188 45.3426 91.5765 45.2492 91.4721 45.0751C91.4278 45.0042 91.4183 44.9075 91.3835 44.8559C91.3171 44.756 91.1874 44.7012 91.0988 44.6013C91.0166 44.5046 90.928 44.366 90.8901 44.2726C90.8331 44.1307 90.8142 43.9438 90.7256 43.9245C90.6402 43.9051 90.5453 44.0534 90.4567 44.0888C90.365 44.1243 90.1436 44.1726 90.055 44.1791C89.7545 44.2049 89.5141 44.1082 89.5489 44.5433C89.5015 44.7399 89.3339 44.7431 89.22 44.8366C89.0777 44.9558 88.9733 45.1944 88.8183 45.3845C88.7424 45.478 88.6317 45.536 88.5652 45.623C88.5083 45.6939 88.4893 45.81 88.4324 45.8777C88.2742 46.0614 88.0338 46.0775 87.9263 46.3353C87.92 46.6383 88.0433 46.8671 88.0149 47.1572C88.0022 47.2894 87.9231 47.4054 87.9105 47.5408C87.901 47.6568 87.9484 47.7825 87.9263 47.905C87.9137 47.9727 87.8536 48.0049 87.8061 48.0887C87.765 48.1628 87.7492 48.2595 87.7175 48.3079C87.6669 48.3852 87.5847 48.44 87.5372 48.5077C87.4613 48.6173 87.4455 48.6946 87.3728 48.7075C87.047 48.7656 86.9647 48.0049 86.8224 47.6858C86.756 47.5408 86.62 47.4054 86.5535 47.2281C86.4776 47.0251 86.4523 46.7672 86.3448 46.5352C86.2531 46.3353 86.1234 46.1387 86.0601 45.9324C86.0063 45.7584 85.962 45.5425 85.9114 45.3491C85.8577 45.146 85.8007 44.8882 85.7913 44.7302C85.7786 44.4917 85.8292 44.3467 85.6711 44.2564C85.5287 44.2983 85.4623 44.4756 85.2978 44.4756C85.1333 44.4756 84.7126 44.1372 84.836 43.8374C84.7316 43.6569 84.4691 43.557 84.2698 43.3443C84.156 43.2218 84.0516 42.9317 83.8523 42.906C83.7985 42.8995 83.7258 42.9382 83.672 42.9414C83.5455 42.9543 83.3209 42.9285 83.1786 42.9414C82.9983 42.9575 82.78 43.0091 82.5523 42.9769C82.4068 42.9575 82.2265 42.9221 82.0747 42.9027C81.8849 42.8802 81.6287 42.8222 81.5243 42.7029C81.4579 42.6288 81.4326 42.3903 81.3155 42.3548C81.1764 42.3161 81.1005 42.4451 80.9739 42.4837C80.7019 42.5611 80.471 42.416 80.2875 42.2646C80.1579 42.1582 80.0377 42.1034 79.9459 42.026C79.7182 41.8391 79.6771 41.2815 79.3355 41.2783C79.2153 41.2783 79.0255 41.3685 79.0065 41.5329C78.9939 41.6489 79.1204 41.8649 79.171 41.9519C79.3386 42.242 79.6455 42.3484 79.7372 42.7351C79.8004 42.7641 79.9238 42.6674 79.9902 42.7545C80.0472 42.9221 79.9902 43.2283 80.1231 43.3024C80.743 43.4281 80.9202 43.0123 81.1953 42.719C81.3567 42.8479 81.3029 42.9607 81.3598 43.1026C81.4168 43.2476 81.5053 43.3636 81.6129 43.412C81.6888 43.4474 81.7837 43.412 81.8975 43.4668C81.9671 43.499 82.2613 43.8407 82.2708 43.9599C82.2771 44.0663 82.0778 44.4337 82.0177 44.524C81.9576 44.6142 81.8659 44.6625 81.8374 44.7431C81.8153 44.8076 81.8216 44.9397 81.809 44.9816C81.7805 45.0558 81.6477 45.1492 81.5718 45.2363C81.4895 45.3297 81.3946 45.4006 81.3187 45.4748C81.2238 45.5618 81.1669 45.6843 81.0657 45.7294C80.8664 45.8196 80.6798 45.781 80.5153 45.9131C80.4077 46.0001 80.4077 46.1935 80.2781 46.2967C80.142 46.4062 79.908 46.4062 79.7119 46.5158C79.5854 46.5867 79.5094 46.7221 79.3987 46.7705C79.3545 46.7898 79.2975 46.7705 79.2501 46.7898C79.152 46.822 79.0603 46.9058 78.9654 46.9348C78.8926 46.9574 78.8136 46.9477 78.7408 46.9703C78.5099 47.0509 78.3012 47.3377 78.0703 47.1701C77.9627 46.8639 77.9437 46.4739 77.8172 46.2032C77.754 46.0646 77.6243 46.0227 77.58 45.8744C77.5737 45.7584 77.6907 45.7906 77.7002 45.6907C77.6622 45.4941 77.5104 45.4006 77.4187 45.233C77.3744 45.1525 77.3522 45.0364 77.2985 44.9397C77.1213 44.6239 76.7702 44.4595 76.7007 44.0631C76.6817 43.9567 76.7007 43.8729 76.6848 43.7891C76.6564 43.6537 76.5805 43.5119 76.5045 43.4055C76.4476 43.325 76.3306 43.2702 76.2673 43.1509C76.223 43.0736 76.2135 42.9607 76.1788 42.8769C76.0301 42.5385 75.815 42.2388 75.5809 42.0003C75.4607 42.0228 75.3279 42.0325 75.2678 42.1292C75.3279 42.3677 75.4228 42.5675 75.5208 42.7674C75.6126 42.9511 75.7423 43.1445 75.8024 43.3507C75.8245 43.4281 75.8213 43.5248 75.8466 43.6054C75.9415 43.8954 76.2357 43.9825 76.2926 44.3177C76.3337 44.5401 76.2831 44.6948 76.3369 44.9204C76.3875 45.1363 76.6469 45.262 76.7544 45.4683C76.843 45.6359 76.843 45.8744 76.9031 46.0356C76.9917 46.2709 77.2415 46.3708 77.425 46.5287C77.5895 46.6705 77.7065 46.8897 77.8425 47.0412C77.9216 47.1282 78.0323 47.1443 78.0513 47.241C78.0766 47.3635 78.0102 47.4054 77.9912 47.515C78.1051 47.66 78.2158 47.9308 78.4087 47.9533C78.4878 47.963 78.5858 47.8663 78.706 47.8437C78.7661 47.8341 78.8357 47.8566 78.8863 47.8437C78.9654 47.8276 79.035 47.7406 79.1267 47.7148C79.2785 47.6761 79.4557 47.6923 79.6486 47.66C79.8321 47.631 79.9554 47.4409 80.0946 47.4957C80.2464 47.7019 80.1389 47.934 80.0946 48.1338C80.0788 48.2047 80.0788 48.2756 80.0661 48.3337C79.9871 48.6592 79.7751 48.8977 79.6771 49.191C79.6486 49.2812 79.6518 49.3908 79.617 49.4843C79.5063 49.7776 79.2754 50.0645 79.0951 50.3062C78.9939 50.4416 78.9053 50.564 78.7978 50.6704C78.6902 50.7768 78.5605 50.838 78.4403 50.9444C78.2031 51.1571 77.9532 51.4633 77.7856 51.7469C77.7192 51.8565 77.6907 51.9822 77.6211 52.0757C77.523 52.2078 77.3744 52.2723 77.2921 52.4044C77.2289 52.5076 77.1878 52.6945 77.1119 52.8782C77.0296 53.0877 76.8588 53.2296 76.8873 53.5164C76.8999 53.626 76.979 53.6969 77.0075 53.8097C77.0549 54.0031 77.017 54.1675 76.9917 54.3738C77.0771 54.6252 77.1372 54.9023 77.289 55.0667C77.308 55.4374 77.2637 55.7951 77.289 56.1078C77.3048 56.3076 77.3681 56.4527 77.3048 56.6364C77.2479 56.7975 77.0328 57.0812 76.9031 57.1843C76.7608 57.2971 76.5457 57.3229 76.397 57.4583C76.2926 57.5517 76.2041 57.7129 76.0997 57.8225C75.9225 58.003 75.6822 58.1706 75.6663 58.3511C75.6569 58.4542 75.7328 58.6154 75.7549 58.7153C75.8118 58.986 75.8688 59.3728 75.7707 59.6629C75.6632 59.9787 75.116 59.9143 75.0559 60.2463C75.0369 60.3462 75.0938 60.43 75.0843 60.5396C75.078 60.633 74.98 60.9682 74.9357 61.0681C74.8693 61.2196 74.7206 61.2873 74.6225 61.4162C74.4992 61.5774 74.4391 61.8127 74.3094 61.9803C74.1323 62.2123 73.895 62.4541 73.6673 62.6571C73.468 62.8312 73.1138 63.0149 72.8038 63.0407C72.6235 63.0568 72.4274 62.9891 72.2376 63.0213C72.168 63.0342 72.0921 63.1116 72.0004 63.1309C71.9466 63.1406 71.8928 63.118 71.8359 63.1309C71.741 63.1503 71.6556 63.2405 71.567 63.2405C71.3741 63.2405 71.1274 62.9569 71.121 62.6765C71.121 62.5669 71.197 62.467 71.197 62.3671C71.197 62.251 71.0799 62.1028 70.9882 61.8933C70.8996 61.6902 70.868 61.4581 70.7794 61.2905C70.6877 61.1133 70.5643 61.0295 70.4948 60.8876C70.3588 60.6072 70.3461 60.2753 70.3018 59.9368C70.286 59.8272 70.2259 59.708 70.2133 59.5726C70.1974 59.405 70.2291 59.2181 70.1974 59.0795C70.1721 58.9731 70.0772 58.8635 70.0171 58.7314C69.9128 58.4961 69.8368 58.1867 69.7483 58.003C69.6629 57.8321 69.4952 57.6516 69.4794 57.455C69.4699 57.3229 69.4921 57.0747 69.5079 56.9426C69.5237 56.8136 69.6028 56.7137 69.6281 56.5784C69.6439 56.4881 69.6249 56.385 69.6439 56.2851C69.7198 55.8661 70.0962 55.7146 70.0456 55.2085C70.0235 54.9926 69.9001 54.8862 69.8811 54.6413C69.8716 54.5285 69.9286 54.4253 69.9254 54.3125C69.9254 54.1578 69.8179 53.929 69.7609 53.7839C69.6091 53.381 69.5174 53.0136 69.2991 52.7074C69.1789 52.5398 69.0239 52.4238 68.9259 52.2691C68.8468 52.1434 68.7488 51.9081 68.7456 51.8114C68.7456 51.7082 68.812 51.6406 68.8342 51.5374C68.8658 51.4021 68.869 51.1474 68.9101 50.9347C68.9291 50.838 69.0145 50.5995 68.9986 50.4416C68.9828 50.2901 68.7994 49.9968 68.6412 49.9484C68.4325 49.884 68.2174 50.029 67.9548 50.0032C67.7271 49.8292 67.7461 49.3683 67.4171 49.3103L67.4203 49.3328ZM75.6663 55.8661C75.7359 55.7307 75.8213 55.3536 75.6663 55.2633H75.6379C75.5715 55.4148 75.5019 55.7823 75.6663 55.8661ZM75.4576 52.0499C75.5082 51.9242 75.6252 51.7888 75.6062 51.6309C75.562 51.2796 75.0274 51.4536 74.9641 51.705C74.923 51.8726 74.9894 52.008 74.9325 52.1788C74.9926 52.3142 75.1381 52.34 75.3216 52.3239C75.4228 52.2691 75.4101 52.1659 75.4544 52.0499H75.4576ZM74.5498 53.9322C74.6099 53.7968 74.4549 53.7098 74.4296 53.568C74.4011 53.4004 74.4644 53.2005 74.341 53.1103H74.2967C74.1892 53.41 74.341 53.9032 74.5498 53.9322ZM84.719 35.8055C84.662 35.6669 84.5007 35.8474 84.5703 35.9698C84.6715 35.9763 84.7063 35.9054 84.719 35.8055ZM81.2459 36.5532C81.4863 36.4952 81.246 36.0246 81.0657 36.0794C80.8284 36.1536 81.0815 36.5919 81.2459 36.5532ZM80.142 38.9093C80.218 38.2776 79.8131 38.2292 79.7403 37.778C79.7751 37.7844 79.7562 37.7264 79.7846 37.7232C79.8827 37.6652 80.0313 37.8167 80.0819 37.6684C80.0819 37.4525 79.8605 37.2913 79.636 37.3944C79.5727 37.3397 79.5632 37.2172 79.5474 37.1011C79.3798 36.9787 78.9591 36.7079 78.9654 36.463C78.9717 36.2599 79.1836 36.1471 79.4272 36.1536C79.5316 36.0569 79.4652 35.7636 79.3671 35.6959C78.9812 35.5927 78.7756 35.6636 78.5321 35.8796C78.415 35.9827 78.2853 36.0536 78.2189 36.1181C78.1588 36.1761 78.0797 36.3308 78.0861 36.4114C78.0956 36.5242 78.2284 36.5919 78.279 36.7402C78.3043 36.8175 78.3012 36.9142 78.3233 36.9787C78.3897 37.1559 78.5542 37.2687 78.6807 37.417C78.7693 37.5201 79.0192 37.749 79.0223 37.8747C79.0255 37.9778 78.9464 38.0004 78.918 38.1132C78.8895 38.2228 78.8579 38.4774 78.8737 38.5709C78.9053 38.7707 79.0761 38.7772 79.2311 38.8642C79.3861 38.948 79.5347 39.0962 79.6929 39.1027C79.8637 39.1091 80.044 39.0415 80.1389 38.919L80.142 38.9093ZM76.6374 37.5943C77.0423 37.504 76.8556 37.0883 76.6532 36.9368C76.4982 36.824 76.3116 36.724 76.1313 36.5887C76.0269 36.5113 75.6284 36.3631 75.6252 36.2051C75.6252 36.0343 75.9225 35.9763 75.8024 35.6765C75.5968 35.6153 75.1128 35.712 75.1476 35.986C75.1666 36.1439 75.3216 36.0569 75.3564 36.2245C75.2109 36.2889 75.0337 36.4565 74.8787 36.4243C74.6953 36.3888 74.6478 36.1149 74.5498 35.9505C74.4074 35.9569 74.3157 35.7829 74.1481 35.8055C73.9741 35.828 73.8792 36.1407 73.7907 36.2986C73.7432 36.3824 73.6673 36.4243 73.642 36.4984C73.6262 36.5435 73.642 36.6145 73.6262 36.6821C73.5756 36.8852 73.4301 36.9593 73.4459 37.1398C73.4585 37.2978 73.6009 37.3687 73.6104 37.504C73.6009 37.6459 73.4174 37.5717 73.4301 37.7425C73.6958 38.0133 73.7116 37.6168 73.8476 37.5588C73.9551 37.5137 74.1702 37.5943 74.3094 37.5588C74.4201 37.5298 74.5087 37.3977 74.6384 37.3397C74.7174 37.3042 74.8123 37.272 74.923 37.2655C75.3975 37.243 75.7043 37.6201 76.1155 37.6297C76.2515 37.633 76.4951 37.6233 76.6374 37.5943ZM75.6822 39.7473C75.6916 39.5507 75.6221 39.4024 75.6062 39.1285C75.3311 38.9254 75.1255 39.3154 74.8471 39.2735C74.6763 39.2477 74.5529 39.0028 74.3695 39.035C74.2683 39.0543 74.2208 39.2123 74.1165 39.2348C73.9045 39.2832 73.8065 39.0253 73.5787 39.1253C73.2593 38.8287 73.1169 38.342 73.041 37.7941C72.867 37.5137 72.6014 37.7425 72.4748 37.923C72.3958 37.923 72.2977 37.8715 72.2819 37.9778C72.2218 38.3163 72.6709 38.3517 72.6678 38.5805C72.6678 38.7288 72.4938 38.7159 72.4147 38.8191C72.3325 38.9286 72.3863 39.0253 72.2819 39.093C71.9877 39.1349 71.8897 38.9383 71.8928 38.6192C71.7663 38.3839 71.605 38.2099 71.4911 38.0165C71.45 37.9456 71.3836 37.8328 71.3709 37.7232C71.3614 37.6394 71.4026 37.5298 71.3867 37.4299C71.3551 37.2559 71.0894 37.1237 70.9249 37.027C70.7478 36.9239 70.5296 36.8272 70.403 36.6983C70.3145 36.608 70.2733 36.4469 70.1943 36.3888C70.1278 36.3373 70.0456 36.3469 69.9855 36.2986C69.9033 36.2277 69.9159 36.1117 69.8052 36.0794C69.7483 36.0536 69.6629 36.1471 69.6249 36.2083C69.5522 36.608 69.8179 36.6338 69.9381 36.8111C70.0203 36.9335 70.0614 37.114 70.1468 37.1946C70.2354 37.2784 70.3588 37.2655 70.4758 37.3235C70.5549 37.3622 70.6086 37.4847 70.6845 37.5427C70.8269 37.6491 71.0546 37.6684 71.0736 37.8715C70.985 37.9456 70.7858 37.7651 70.7162 37.9456C70.6972 38.0649 70.7921 38.1261 70.7921 38.2389C70.7889 38.4194 70.6244 38.616 70.479 38.587C70.4631 38.4806 70.558 38.3936 70.5549 38.2776C70.5485 38.0455 70.1658 37.691 69.9729 37.5846C69.8811 37.533 69.7704 37.533 69.6882 37.475C69.5427 37.3751 69.2865 37.1269 69.1947 36.9819C69.0872 36.8078 68.9986 36.4888 68.7614 36.5081C68.6665 36.5145 68.5874 36.6241 68.5084 36.6725C68.4356 36.7176 68.3565 36.7595 68.2838 36.8175C68.1984 36.8884 68.1256 36.9593 68.0466 36.9626C67.8599 36.9722 67.7018 36.7917 67.5405 36.8336C67.4867 36.8465 67.4424 36.9078 67.376 36.9787C67.376 37.085 67.4013 37.1527 67.3918 37.2687C67.3444 37.3719 67.1989 37.3654 67.0945 37.4331C66.9395 37.533 66.8035 37.7361 66.677 37.8908C66.5947 37.9875 66.522 38.0681 66.5125 38.1454C66.5062 38.2067 66.5536 38.3195 66.5441 38.4001C66.5315 38.4871 66.3955 38.6708 66.3069 38.7482C66.2531 38.7933 66.1835 38.7997 66.1266 38.8384C66.0096 38.9222 65.9558 39.035 65.8577 39.0576C65.5984 39.1156 65.1239 38.9931 65.1271 39.3315C65.1271 39.5571 65.377 39.5571 65.5288 39.5507C65.7407 39.541 65.9178 39.6055 66.0349 39.57C66.1139 39.5443 66.2025 39.4347 66.2879 39.3863C66.3417 39.3573 66.3955 39.3573 66.4366 39.3315C66.5251 39.2767 66.5757 39.1865 66.6453 39.1478C66.7813 39.0705 67.0344 39.0124 67.1831 39.0028C67.3855 38.9899 67.5943 39.0286 67.8536 39.0028C67.9454 38.9931 68.0371 38.9222 68.1383 38.9125C68.2996 38.8964 68.5147 38.9899 68.6444 38.9867C68.7361 38.9834 68.8373 38.8739 68.9417 38.8771C69.0619 38.8771 69.1884 38.9834 69.2106 39.0769C69.2232 39.1317 69.1853 39.2155 69.1947 39.2961C69.2106 39.4282 69.3055 39.483 69.2991 39.57C69.2928 39.6829 69.0587 39.8376 69.0904 39.9729C69.1125 40.06 69.277 40.1502 69.3592 40.2114C69.4446 40.2759 69.587 40.3629 69.6882 40.3758C69.7736 40.3887 69.8463 40.3468 69.9254 40.3565C70.0551 40.3726 70.2607 40.4693 70.3429 40.5402C70.4821 40.6595 70.4631 40.8561 70.6244 40.9237C70.694 40.9528 70.8174 40.9366 70.9091 40.9592C71.1274 41.0172 71.2887 41.2364 71.4468 41.2138C71.6967 41.1784 71.5828 40.8915 71.6113 40.6852C71.6746 40.2179 72.4179 40.2404 72.5666 40.5563C72.6741 40.5918 72.7722 40.5628 72.8955 40.6111C72.9683 40.6401 73.0189 40.7368 73.0885 40.7561C73.1391 40.7723 73.215 40.7465 73.2814 40.7561C73.5661 40.7948 73.8254 41.0559 74.0722 41.0108C74.2272 40.9818 74.341 40.8045 74.4897 40.7916C74.7744 40.769 74.9578 41.0527 75.2646 40.9205C75.4924 40.8238 75.4418 40.537 75.5177 40.2437C75.5715 40.0406 75.6758 39.902 75.6822 39.7505V39.7473ZM91.7536 33.5235C91.8137 33.2914 91.722 33.0562 91.6049 32.9014C91.4341 32.9369 91.5575 33.1561 91.5448 33.285C91.529 33.4655 91.3709 33.5912 91.3803 33.7781C91.3234 33.8587 91.2254 33.8909 91.2159 34.0328C91.3108 34.1133 91.3519 33.9683 91.4246 33.8877C91.5385 33.7556 91.7125 33.6782 91.7536 33.5235ZM87.8472 27.1901C87.6828 27.1901 87.6227 27.2707 87.5183 27.3351C87.4613 27.3706 87.3475 27.3932 87.3854 27.4995C87.5278 27.477 87.8124 27.3996 87.8472 27.1901ZM81.5559 29.4366C81.907 29.5365 82.0715 29.0531 81.8374 28.7791C81.7837 28.7146 81.6002 28.6921 81.5243 28.5406C81.4326 28.3633 81.4452 28.1248 81.227 28.1764C81.227 28.1989 81.227 28.2279 81.2112 28.2312C81.1922 28.6308 81.6666 28.7307 81.6571 29.0531C81.654 29.2207 81.5085 29.24 81.5528 29.4366H81.5559Z" fill="white"/>
<path d="M76.647 28.7404C76.6027 28.5438 76.9095 28.576 76.8557 28.7598C76.8083 28.8145 76.6786 28.8113 76.647 28.7404Z" fill="white"/>
<path d="M74.8154 39.6571C74.8218 39.5056 75.1033 39.4508 75.157 39.5829C75.1381 39.728 74.8724 39.8311 74.8154 39.6571Z" fill="white"/>
<path d="M69.7007 38.6708C69.8557 38.5161 70.2036 38.6224 70.4155 38.616C70.3744 38.7546 70.3681 38.9383 70.2827 39.0189C70.0391 38.9641 69.8114 38.89 69.7007 38.6708Z" fill="white"/>
<path d="M68.613 37.7039C68.8186 37.4428 69.0337 37.5814 68.9546 38.0874C68.9071 38.2389 68.6921 38.442 68.5972 38.2163C68.6288 38.0391 68.6161 37.9101 68.613 37.7039Z" fill="white"/>
<path d="M68.9102 37.1205C68.926 37.2752 68.8754 37.3429 68.8058 37.3944C68.6097 37.3525 68.7584 36.9206 68.9102 37.1205Z" fill="white"/>
<path d="M66.0191 33.4139C66.0349 33.3108 65.9685 33.1786 65.8863 33.1206C65.8388 33.0884 65.7629 33.1013 65.706 33.0658C65.5605 32.9691 65.5067 32.7629 65.4245 32.7177C65.434 32.5179 65.3802 32.3729 65.4245 32.2439C65.4529 32.1666 65.6459 31.941 65.7534 31.8958C65.8831 31.841 66.0191 31.8894 66.095 31.7669C66.1298 31.7605 66.152 31.7669 66.171 31.7863C66.171 31.9023 66.0919 31.9216 66.0824 32.0248C66.1014 32.1891 66.3386 32.086 66.3639 32.2439C66.3418 32.4148 66.2152 32.447 66.2152 32.5727C66.2152 32.6823 66.3955 32.8853 66.4841 33.0304C66.5505 33.1367 66.6644 33.2141 66.7213 33.3237C66.7719 33.4171 66.7846 33.53 66.8257 33.5783C66.9048 33.6685 67.0819 33.6847 67.0946 33.8168C67.1104 33.9909 66.9174 34.0585 66.9459 34.2551C66.7403 34.4518 66.3987 34.3486 66.0666 34.4002C65.9147 34.4228 65.7503 34.6065 65.589 34.455C65.551 34.3325 65.7218 34.3164 65.7376 34.2004C65.725 34.094 65.6143 34.1069 65.589 34.0166C65.6332 33.8748 65.7661 33.8458 65.7534 33.6331C65.8357 33.5235 65.997 33.5654 66.0223 33.4139H66.0191Z" fill="white"/>
<path d="M64.8994 32.9756C65.0987 32.8273 65.4466 32.9401 65.4656 33.1206C65.4814 33.256 65.3612 33.2785 65.3169 33.43C65.2789 33.5686 65.3232 33.7362 65.2726 33.8329C65.2283 33.9167 65.1018 33.9103 65.0196 33.9425C64.833 34.0102 64.4692 34.2809 64.3174 33.978C64.3395 33.8168 64.466 33.7846 64.5103 33.6492C64.5103 33.5428 64.4218 33.4881 64.4344 33.3752C64.4534 33.2366 64.5388 33.285 64.659 33.2302C64.7476 33.1883 64.7855 33.0594 64.8962 32.9756H64.8994Z" fill="white"/>
<path d="M54.7175 29.0144C54.7492 29.1755 54.3253 29.3883 54.2842 29.1788C54.2526 29.0112 54.61 28.8017 54.7175 29.0144Z" fill="white"/>
<path d="M54.2275 70.1573H54.0029C54.044 70.1283 54.1864 70.1283 54.2275 70.1573Z" fill="white"/>
<path d="M53.5537 27.7187C53.5727 27.6929 53.6233 27.6929 53.6423 27.7187C53.6265 27.7606 53.617 27.8089 53.5537 27.7928V27.7187Z" fill="white"/>
<path d="M52.2284 30.6227C52.2284 30.7226 51.931 30.8902 51.8994 30.6968C51.8931 30.6614 51.8994 30.5937 51.9595 30.5518C52.0386 30.4906 52.2252 30.526 52.2284 30.6259V30.6227Z" fill="white"/>
<path d="M46.0256 47.5795C46.0192 47.6052 46.0034 47.6246 45.9971 47.6536C45.8389 47.6471 45.9813 47.399 46.0256 47.5795Z" fill="white"/>
<path d="M39.9714 34.8192C40.0757 34.745 40.177 34.932 40.1042 35.019C39.9903 35.0448 39.9587 34.8836 39.9714 34.8192Z" fill="white"/>
<path d="M56.2232 35.496C56.1536 35.4735 56.0587 35.4799 55.9701 35.4606C55.8942 35.4445 55.8025 35.4155 55.7329 35.4058C55.5494 35.38 55.3502 35.4445 55.2394 35.3155C55.4166 35.0255 55.6538 34.7418 55.8815 34.4937C55.948 34.4195 56.0935 34.3679 56.0618 34.2197C55.9353 34.0843 55.7803 34.2294 55.6601 34.3099C55.5336 34.397 55.3849 34.5227 55.2426 34.5484C54.9959 34.5936 54.6701 34.4614 54.4677 34.6226C54.4392 34.7612 54.6954 34.7064 54.6606 34.9159C54.5626 34.9352 54.4677 34.9449 54.3918 34.8611C54.3222 34.7837 54.3633 34.6709 54.3158 34.6226C54.2399 34.5452 53.9521 34.5227 53.8224 34.5484C53.6642 34.5807 53.5282 34.6935 53.5093 34.8579C53.699 34.9642 54.009 34.7483 54.0754 35.0222C53.9711 35.2511 53.7307 35.3736 53.7623 35.6798C53.775 35.7958 53.8888 35.9537 53.9711 35.9731C54.0533 35.9892 54.1007 35.8893 54.1798 35.8989C54.2652 35.9086 54.2462 36.0278 54.3443 36.0085C54.4866 35.9344 54.5657 35.6862 54.7334 35.6991C54.9295 35.9924 54.5562 36.1342 54.3443 36.2277C54.1071 36.334 53.7939 36.3888 53.6136 36.4823C53.5187 36.5307 53.1582 36.9593 53.1076 36.6273C53.0696 36.3888 53.2847 36.4597 53.3321 36.2631C53.1012 36.2083 52.8861 36.3856 52.6774 36.4823C52.3769 36.6209 51.8708 36.7079 51.798 37.1205C51.7822 37.2043 51.8265 37.359 51.7822 37.4138C51.7474 37.4589 51.5324 37.4654 51.4406 37.504C51.2983 37.5653 51.1718 37.6942 51.0832 37.7232C51.0168 37.7458 50.9187 37.7393 50.8744 37.7587C50.7574 37.8134 50.7131 38.0101 50.5771 38.1422C50.5202 38.197 50.3968 38.2357 50.3525 38.2872C50.2766 38.3807 50.264 38.616 50.128 38.6515C50.0426 38.6611 49.9698 38.5709 49.8907 38.6321C49.8812 38.8642 49.9572 39.18 49.8749 39.4186C49.6978 39.5958 49.5048 39.7183 49.2771 39.8762C49.1506 39.9633 49.0399 39.9858 48.8881 40.0761C48.7805 40.1405 48.6825 40.2985 48.5591 40.3855C48.2744 40.5918 47.9296 40.8335 47.9328 41.3524C47.9328 41.4652 47.9803 41.5845 47.9929 41.7166C47.9992 41.794 47.9866 41.8681 47.9929 41.9551C48.0119 42.1453 48.1226 42.3903 47.9929 42.5192C47.7936 42.4193 47.5374 42.3838 47.3951 42.2098C47.3571 42.0293 47.4742 41.881 47.4552 41.7166C47.4394 41.5845 47.2907 41.3492 47.2021 41.3331C47.1104 41.317 47.0282 41.433 46.9333 41.4233C46.8226 41.4137 46.7182 41.2235 46.5759 41.2042C46.3671 41.1751 46.2121 41.2622 45.9781 41.2235C45.7535 41.3718 45.6871 41.6328 45.4119 41.607C45.3138 41.5974 45.2252 41.5071 45.1145 41.4781C44.9943 41.4459 44.8077 41.3943 44.6812 41.404C44.4282 41.4233 44.2447 41.6489 44.0265 41.7875C43.8335 41.91 43.5615 42.0615 43.5045 42.3161C43.4729 42.4515 43.4982 42.6449 43.4603 42.7738C43.435 42.8576 43.3749 42.9317 43.3401 43.0123C43.1724 43.3862 43.0333 43.8793 43.1629 44.4176C43.1819 44.4982 43.3464 44.9462 43.416 45.0364C43.4919 45.1363 43.7196 45.2878 43.8493 45.291C43.9569 45.291 44.0866 45.2234 44.1909 45.2008C44.3143 45.175 44.4661 45.1718 44.58 45.1267C44.9026 45.001 44.8394 44.4659 45.162 44.2854C45.3012 44.2081 45.4656 44.192 45.7124 44.1759C45.7914 44.2564 45.8294 44.3982 45.8167 44.5239C45.8072 44.6174 45.7377 44.7012 45.6965 44.8334C45.6617 44.9494 45.6554 45.0848 45.6206 45.1815C45.5763 45.3039 45.4783 45.3942 45.4403 45.5102C45.4182 45.5843 45.4308 45.6778 45.4119 45.7455C45.3771 45.8648 45.2474 45.9518 45.3075 46.0743C45.627 46.229 46.0128 46.0291 46.2912 46.0936C46.4082 46.1194 46.6518 46.2902 46.6486 46.5126C46.6486 46.677 46.5442 46.7866 46.5284 46.9703C46.5094 47.1991 46.4335 47.4795 46.424 47.6633C46.4114 47.9662 46.7878 48.4884 47.0503 48.4851C47.335 48.4819 47.4995 48.1403 47.8411 48.3208C47.955 48.382 48.0752 48.6044 48.1985 48.5947C48.3029 48.5851 48.4579 48.3659 48.5275 48.2112C48.6129 48.0242 48.616 47.8663 48.7647 47.7728C48.926 47.6729 49.0525 47.7213 49.2581 47.6278C49.3499 47.5859 49.4289 47.515 49.5112 47.4441C49.5839 47.3828 49.6598 47.2249 49.7484 47.3345C49.8686 47.4795 49.6029 47.5633 49.7041 47.718C49.9097 47.8534 50.0173 47.4699 50.1659 47.4634C50.2134 47.4634 50.3778 47.5762 50.4632 47.6471C50.5803 47.7406 50.6182 47.8727 50.7479 47.9018C50.8302 47.9211 50.9598 47.8631 51.0769 47.8824C51.2287 47.9082 51.3204 48.0694 51.4343 48.0661C51.5735 48.0629 51.6431 47.8727 51.7633 47.847C52.0258 47.7889 52.1238 47.8824 52.2409 48.0855C52.3706 48.1145 52.3737 47.9018 52.4939 47.9759C52.4275 48.1338 52.5161 48.208 52.5698 48.3401C52.6046 48.4239 52.5983 48.4851 52.6299 48.5238C52.6995 48.6076 52.8387 48.6076 52.9431 48.6882C53.0538 48.772 53.1139 48.9299 53.2404 49.1072C53.3701 49.2877 53.5883 49.4779 53.7623 49.4907C53.9268 49.5036 54.0596 49.4327 54.1956 49.4553C54.5025 49.5004 54.6954 49.6906 54.9105 49.8936C55.0307 50.0064 55.1414 50.087 55.1793 50.2224C55.2078 50.3159 55.192 50.4448 55.2236 50.5511C55.2901 50.7768 55.5589 50.8896 55.4609 51.2828C55.5051 51.3988 55.6064 51.4407 55.7139 51.5213C55.7993 51.5858 55.8721 51.7211 55.9669 51.7405C56.027 51.7534 56.0935 51.7179 56.1472 51.7211C56.318 51.7373 56.4319 51.8178 56.5806 51.8855C56.6723 51.9274 56.7893 51.9468 56.8494 51.9951C56.9253 52.0563 56.9348 52.2691 57.0297 52.3239C57.0898 52.3593 57.2258 52.311 57.3271 52.3239C57.4884 52.3464 57.7035 52.4657 57.849 52.4689C57.9375 52.4689 58.0103 52.4238 58.0862 52.4334C58.4499 52.4689 58.6587 53.0039 59.0098 53.1651C59.1205 53.2167 59.2913 53.1812 59.3672 53.2199C59.5001 53.2908 59.6108 53.7839 59.6203 54.0031C59.6519 54.6671 59.2344 54.8798 58.994 55.3181C58.9434 55.4084 58.9149 55.5566 58.8453 55.6823C58.703 55.9402 58.5417 55.995 58.5606 56.4688C58.567 56.5977 58.6207 56.7266 58.6207 56.8717C58.6207 57.0489 58.6081 57.2778 58.5765 57.4389C58.5512 57.5614 58.4689 57.6581 58.4563 57.7677C58.4436 57.8773 58.4816 57.9643 58.4721 58.061C58.4594 58.1673 58.374 58.3156 58.3076 58.4606C58.1684 58.7733 58.14 59.1375 57.8616 59.2632C57.6971 59.3373 57.4757 59.2954 57.2954 59.3728C57.2227 59.405 57.1309 59.4856 57.0424 59.5372C56.783 59.6854 56.4129 59.8853 56.3402 60.214C56.2769 60.5073 56.4287 60.7394 56.3845 61.0714C56.337 61.1713 56.2769 61.2712 56.2042 61.3808C56.1409 61.4839 56.1093 61.6064 56.0397 61.7095C55.9511 61.8481 55.812 61.9061 55.7582 62.0931C55.7392 62.1543 55.7519 62.2317 55.7297 62.3316C55.7202 62.367 55.6665 62.4251 55.6412 62.496C55.6158 62.5604 55.619 62.6442 55.5969 62.6958C55.5273 62.8634 55.3248 63.247 55.1793 63.2985C54.8694 63.4049 54.5436 63.1374 54.3285 63.1889C54.3601 63.3727 54.4677 63.3533 54.5372 63.4822C54.5784 63.5564 54.6005 63.6563 54.6574 63.7369C54.7239 63.8303 54.784 63.8658 54.7903 63.9754C54.8061 64.201 54.6638 64.4266 54.5657 64.504C54.4771 64.5749 54.2905 64.6168 54.1324 64.649C54.0217 64.6716 53.737 64.6716 53.6864 64.7586C53.6105 64.8843 53.7275 65.1969 53.6706 65.3226C53.5599 65.5901 53.2594 65.3162 53.1044 65.3968C53.0917 65.5354 53.1329 65.6804 53.2246 65.7449C53.3195 65.8125 53.4618 65.7255 53.5219 65.8544C53.4903 66.0349 53.3321 66.0607 53.2973 66.238C53.3005 66.412 53.3448 66.4572 53.3258 66.5667C53.2878 66.802 52.9905 66.7924 52.9968 67.0405C53.0095 67.4144 53.582 67.2597 53.5947 67.6239C53.601 67.8431 53.4302 67.8463 53.3701 68.0623C53.3385 68.1783 53.3891 68.2041 53.3701 68.3008C53.3448 68.4297 53.2214 68.4684 53.2214 68.6102C53.2214 68.7842 53.4302 68.9776 53.5346 69.1227C53.6358 69.2645 53.7686 69.4675 53.9078 69.561C54.1166 69.7028 54.4297 69.6706 54.5183 69.9252C54.4898 70.0799 54.3696 70.1186 54.2494 70.1637H54.2209C54.1798 70.1347 54.0375 70.1347 53.9964 70.1637H53.7876C53.5883 70.0509 53.3448 69.98 53.1012 69.8737C53.0127 69.835 52.9146 69.7447 52.8166 69.6932C52.7438 69.6513 52.6647 69.6384 52.6078 69.6029C52.4781 69.5191 52.3358 69.2516 52.2061 69.1485C52.127 69.084 52.0037 69.0485 51.953 68.9841C51.9056 68.9228 51.8771 68.7875 51.8328 68.7101C51.7854 68.6263 51.6968 68.5651 51.6399 68.4716C51.5165 68.2686 51.3584 67.9978 51.3552 67.8495C51.3552 67.7045 51.4691 67.6046 51.4311 67.466C51.3932 67.3371 51.1654 67.3661 51.1338 67.2081C51.1148 67.1147 51.2002 66.9567 51.1939 66.8246C51.1908 66.7472 51.0737 66.6441 51.118 66.5313C51.1718 66.4024 51.273 66.541 51.3552 66.4765C51.292 66.2122 51.3616 65.79 51.1465 65.7094C51.0358 65.8222 51.2572 66.0768 51.0706 66.1477C50.8903 66.0511 50.9314 65.7578 50.8903 65.545C50.865 65.4032 50.808 65.2775 50.8017 65.126C50.8017 65.0454 50.827 64.9552 50.8175 64.8714C50.7859 64.6264 50.5613 64.4234 50.5486 64.1784C50.5423 64.0592 50.6087 63.9593 50.6246 63.8303C50.6341 63.7433 50.6151 63.6466 50.6246 63.5564C50.6372 63.4403 50.691 63.334 50.7005 63.2276C50.7195 63.0278 50.7005 62.6829 50.672 62.5153C50.6341 62.3058 50.498 62.1253 50.4791 61.8965C50.4727 61.8127 50.5012 61.6741 50.4949 61.5677C50.4886 61.4678 50.4443 61.3711 50.4348 61.2583C50.4285 61.1552 50.4569 61.0552 50.4632 60.9295C50.4791 60.7007 50.4253 60.4461 50.4348 60.2172C50.4348 60.1496 50.4664 60.1012 50.4632 60.0335C50.4632 59.8466 50.4095 59.6564 50.4032 59.4663C50.3905 59.1182 50.4348 58.8732 50.3873 58.5541C50.3525 58.3124 50.3083 57.9385 50.2387 57.787C50.1596 57.6162 49.8465 57.3293 49.6883 57.2197C49.5839 57.1488 49.4606 57.1231 49.3467 57.0554C49.1031 56.9103 48.6318 56.6009 48.5275 56.3076C48.4958 56.2238 48.5022 56.111 48.4674 56.0143C48.4041 55.8274 48.2649 55.6662 48.17 55.4857C47.9866 55.1408 47.8379 54.709 47.6481 54.3544C47.5532 54.1739 47.471 53.9676 47.3666 53.8258C47.3065 53.742 47.1073 53.6614 47.082 53.5325C47.0472 53.3649 46.9459 53.1329 46.9618 53.0039C46.9839 52.8299 47.2591 52.6881 47.2591 52.5301C47.2591 52.3948 47.1104 52.3174 47.0788 52.2014C47.0029 51.921 47.1231 51.7598 47.2116 51.5245C47.2401 51.4472 47.2717 51.3247 47.3002 51.2699C47.354 51.17 47.4647 51.141 47.5374 51.0314C47.5785 50.9702 47.6039 50.8444 47.6576 50.7574C47.7715 50.5737 47.955 50.5028 47.9992 50.3384C48.0372 50.2031 48.0593 49.5262 48.0151 49.2974C47.9897 49.1652 47.8885 49.0556 47.8506 48.9332C47.7841 48.714 47.7683 48.4722 47.5817 48.4755C47.4678 48.4755 47.3856 48.6334 47.3129 48.7301C47.2939 48.859 47.3034 49.0008 47.1927 49.0395C47.0219 49.1008 46.9586 48.8203 46.7593 48.7462C46.6802 48.7172 46.5537 48.7172 46.5063 48.6914C46.3608 48.6108 46.3165 48.353 46.1647 48.2531C46.0381 48.1693 45.9274 48.1983 45.8515 48.0694C45.8199 47.9823 45.8452 47.8212 45.8357 47.7051C45.6712 47.5891 45.5352 47.1508 45.3423 47.0476C45.2158 46.98 45.0228 46.9864 44.8647 46.9187C44.7919 46.8865 44.7318 46.8478 44.6559 46.8285C44.561 46.8027 44.463 46.7995 44.387 46.7543C44.0929 46.5738 43.9316 45.9937 43.5678 46.0066C43.4128 46.013 43.261 46.1903 43.1218 46.1903C42.9826 46.1903 42.7454 46.0517 42.5715 45.9518C42.388 45.8486 42.1856 45.7906 42.0337 45.6972C41.9104 45.6198 41.8281 45.4812 41.7206 45.4232C41.6384 45.3781 41.5182 45.3716 41.4517 45.3329C41.3568 45.2782 41.2556 45.1589 41.1386 45.059C41.0247 44.9623 40.9045 44.8172 40.9014 44.6948C40.895 44.553 41.0089 44.4305 41.0216 44.2919C41.0595 43.8568 40.797 43.5441 40.6325 43.2895C40.5091 43.0993 40.3668 42.9382 40.2466 42.7609C40.2529 42.6449 40.2529 42.6223 40.2466 42.5063C40.1549 42.3967 40.0758 42.2323 39.9778 42.0679C39.8892 41.9197 39.7184 41.7618 39.6931 41.5941C39.6646 41.3879 39.7563 41.2074 39.6931 41.0108C39.5855 40.6788 39.2123 40.8303 39.2597 41.2654C39.2724 41.3846 39.4116 41.549 39.4527 41.6683C39.497 41.7908 39.4875 41.9422 39.5286 42.0873C39.5666 42.2291 39.6836 42.3484 39.7215 42.5063C39.7848 42.7577 39.7816 43.0252 39.8417 43.1831C39.8924 43.3217 40.0821 43.4539 39.9746 43.6215C39.8323 43.6569 39.7785 43.4861 39.6899 43.383C39.6425 43.3282 39.4622 43.2218 39.4369 43.0897C39.4147 42.9833 39.4938 42.8383 39.4653 42.7061C39.4147 42.4483 38.9909 42.4418 38.9877 42.1775C38.9877 42.0099 39.1649 41.9906 39.168 41.8294C39.168 41.6522 38.9719 41.5039 38.9308 41.3556C38.8928 41.2203 38.8865 41.0011 38.8707 40.8077C38.858 40.6272 38.8739 40.4177 38.8391 40.2791C38.8074 40.1534 38.6556 39.9826 38.5575 39.9149C38.4279 39.8247 38.3235 39.8633 38.2602 39.7312C38.2033 39.6184 38.1685 39.3799 38.1558 39.2574C38.1337 39.0382 38.1495 38.7965 38.14 38.5644C38.1305 38.3291 38.1116 38.1035 38.14 37.8521C38.2128 37.6749 38.3488 37.5878 38.4247 37.4138C38.4785 37.2913 38.4848 37.143 38.5449 37.0109C38.6556 36.7724 38.8928 36.5532 39.051 36.3179C39.225 36.0633 39.3831 35.8216 39.4843 35.5315C39.5191 35.4284 39.6172 35.1995 39.6045 35.0738C39.5855 34.8998 39.3135 34.7547 39.3357 34.5452C39.3483 34.4163 39.5001 34.4163 39.5444 34.2906C39.5666 34.2261 39.5887 34.0424 39.5887 33.9618C39.5887 33.7846 39.5159 33.6009 39.5444 33.4139C39.5697 33.2528 39.7627 33.1883 39.6646 33.011C39.5666 32.837 39.3863 33.1045 39.2756 32.9917C39.1743 32.8885 39.2945 32.7628 39.304 32.5727C39.3072 32.4953 39.2692 32.4115 39.2756 32.3535C39.285 32.2729 39.4147 32.1343 39.3799 32.0795C39.3009 31.9538 39.2091 31.638 39.0383 31.5316C38.8201 31.3963 38.5829 31.4865 38.2792 31.422C38.0926 31.3834 38.004 31.1674 37.8332 31.1835C37.7257 31.1932 37.6656 31.3415 37.5201 31.422C37.3746 31.4994 37.188 31.4736 37.0425 31.5123C36.9001 31.551 36.8305 31.6734 36.685 31.6573C36.5617 31.6444 36.5617 31.5091 36.4162 31.4929C36.3592 31.4865 36.2517 31.5348 36.1631 31.5477C35.9322 31.5767 35.5179 31.5929 35.2838 31.5284C35.0719 31.4704 34.939 31.3898 34.7018 31.2544C34.5247 31.1545 34.1957 31.0288 34.2084 30.8709C34.2179 30.7677 34.5215 30.6614 34.6417 30.6163C34.8346 30.5453 34.9548 30.4261 35.1035 30.4164C35.1604 30.4132 35.2364 30.4583 35.3123 30.4519C35.3882 30.4454 35.4831 30.3584 35.5811 30.3423C35.7899 30.3068 36.084 30.3552 36.0587 30.1038C35.9006 29.9491 35.2553 30.2166 35.2395 29.8846C35.23 29.6848 35.4831 29.6235 35.6729 29.5752C35.8437 29.5301 36.103 29.4559 36.2549 29.4656C36.4257 29.4753 36.6502 29.7106 36.7483 29.4463C36.7957 29.2593 36.6914 29.1046 36.6597 28.9531C36.7862 28.7404 37.0203 28.7662 37.1974 28.734C37.3999 28.6985 37.5644 28.6534 37.7636 28.5503C37.9376 28.46 38.1242 28.402 38.3298 28.3665C38.5322 28.3343 38.7284 28.2408 38.9118 28.2215C39.0605 28.2054 39.1996 28.2215 39.3451 28.186C39.4717 28.157 39.6077 28.07 39.7469 28.0765C39.8417 28.0829 39.9208 28.1667 40.0157 28.186C40.1043 28.2054 40.2055 28.1796 40.3004 28.2054C40.3731 28.2247 40.4364 28.2827 40.5091 28.2956C40.623 28.315 40.7432 28.2763 40.8508 28.2956C40.952 28.3117 41.0374 28.3891 41.1354 28.4052C41.3663 28.4407 41.6289 28.3891 41.8503 28.4407C41.9357 28.46 42.0116 28.5116 42.1033 28.5309C42.1919 28.5502 42.2868 28.5309 42.3722 28.5503C42.4892 28.5793 42.5904 28.7179 42.7138 28.734C42.9447 28.763 43.2041 28.6115 43.4445 28.5889C43.6184 28.5728 43.7987 28.5986 43.9822 28.5535C44.1498 28.5116 44.3111 28.4342 44.4598 28.4245C44.542 28.4213 44.6085 28.4536 44.6844 28.4439C44.7603 28.431 44.8552 28.3182 44.9374 28.3343C45.0481 28.3569 45.0291 28.5277 45.1462 28.5728C45.2759 28.489 45.4055 28.5793 45.5479 28.5728C45.6871 28.5664 45.8104 28.489 45.9654 28.518C46.2374 28.5696 46.617 28.8951 46.8289 28.7179C46.8827 28.6727 46.87 28.5954 46.9175 28.4793C46.9839 28.3214 47.1136 28.1377 47.082 27.9121C46.7815 27.9185 46.4968 28.0958 46.1583 28.1119C45.8136 27.8476 46.2501 27.6832 46.5 27.564C46.7055 27.4641 46.87 27.2449 47.1262 27.1998C47.335 27.1643 47.5627 27.2546 47.8126 27.29C47.9581 27.3094 48.1005 27.2771 48.1859 27.3094C48.3314 27.3641 48.4073 27.5414 48.5275 27.5833C48.5812 27.6027 48.6666 27.5994 48.7362 27.6188C48.8691 27.6575 48.9893 27.7445 49.1253 27.6188C49.2297 27.6413 49.2423 27.7799 49.3499 27.8025C49.4479 27.738 49.5238 27.5704 49.6788 27.5285C49.7452 27.5092 49.8148 27.5414 49.8876 27.5285C50.0078 27.506 50.1722 27.3029 50.245 27.4931C50.2134 27.6252 50.0521 27.6446 49.9603 27.7477C49.8812 27.8412 49.7579 28.0539 49.7674 28.1506C49.7864 28.3246 49.9983 28.2569 50.0046 28.4793C49.973 28.6083 49.8528 28.5503 49.7516 28.6083C49.6598 28.6598 49.625 28.7694 49.527 28.792C49.255 28.8532 49.0304 28.7082 48.7963 28.7179C48.7868 28.8436 48.9134 28.9145 48.9766 28.9564C49.1885 29.0917 49.3625 29.0756 49.663 29.0659C49.818 29.0627 49.992 29.1207 50.1248 29.0112C50.207 28.9402 50.2039 28.7855 50.2735 28.7017C50.3589 28.5986 50.5518 28.4955 50.6752 28.518C50.7416 28.5309 50.8396 28.6308 50.8396 28.7017C50.8396 28.8661 50.6467 28.8145 50.6467 28.995C50.7732 29.0885 51.1053 28.8951 51.1243 28.7404C51.137 28.6276 51.0168 28.5631 51.0199 28.4471C51.0263 28.2569 51.2382 28.2602 51.2129 28.0636C51.1117 27.9636 51.0041 28.0861 50.8997 28.0636C50.7542 28.0346 50.6214 27.8186 50.5581 27.68C50.6214 27.5833 50.7574 27.6478 50.8555 27.6607C50.9662 27.4737 51.1686 27.4028 51.4533 27.3674C51.5545 27.3545 51.6873 27.3061 51.738 27.4222C51.7633 27.5962 51.5292 27.6994 51.5735 27.896C51.7727 27.9572 51.8392 27.6252 52.0068 27.4931C52.0796 27.4351 52.1839 27.3964 52.2915 27.348C52.3832 27.3061 52.4844 27.1998 52.5603 27.203C52.6426 27.203 52.6584 27.29 52.7406 27.3319C52.8134 27.3706 52.9114 27.3061 52.9336 27.4222C52.7596 27.7896 52.1175 27.5769 51.9499 27.9508C51.9878 28.2022 51.8487 28.4407 51.9657 28.6083C52.0479 28.7275 52.2346 28.6469 52.2788 28.7726C52.3358 28.9402 52.0985 28.9402 52.1586 29.1369C52.3168 29.2529 52.5034 29.0273 52.6489 28.937C52.8071 28.8403 53.0032 28.7243 53.0222 28.4987C52.9431 28.315 52.6489 28.4568 52.6046 28.2634C52.5793 28.157 52.6932 27.9185 52.7248 27.8798C52.8798 27.6671 53.4239 27.3641 53.8129 27.406C53.8857 27.4157 53.9616 27.4705 54.0375 27.4802C54.2937 27.5124 54.5973 27.3448 54.7966 27.4802C54.9579 27.3641 55.154 27.4963 55.3786 27.4608C55.5526 27.5865 55.5051 27.8541 55.7677 27.9733C55.8373 28.0055 55.929 27.983 56.0207 28.0088C56.0903 28.0281 56.1662 28.128 56.2453 28.1731C56.3592 28.2344 56.4446 28.2215 56.4699 28.3182C56.4952 28.4149 56.3876 28.4761 56.394 28.5728C56.4572 28.6373 56.4034 28.734 56.4382 28.8274C56.5015 28.995 56.666 28.9854 56.8241 29.0659C56.938 29.124 57.1784 29.2948 57.1657 29.4302C57.1594 29.5204 56.938 29.6783 56.8684 29.7235C56.8178 29.7525 56.5648 29.904 56.4794 29.8878C56.3402 29.8621 56.2833 29.514 56.0903 29.5236C56.0081 29.5268 55.929 29.5881 55.9258 29.7235C55.9258 29.962 56.1441 29.9716 56.1504 30.1811C56.1567 30.4293 56.0397 30.4454 55.8689 30.6001C55.7455 30.5389 55.6411 30.4519 55.4798 30.4358C55.3849 30.5744 55.638 30.6227 55.5557 30.8C55.3154 30.8612 55.1351 30.7162 54.9137 30.6356C54.8441 30.6098 54.746 30.6195 54.6891 30.5808C54.6037 30.5196 54.5784 30.3423 54.5088 30.252C54.4297 30.1457 54.2684 29.9942 54.1355 29.9974C53.9521 29.9974 53.6864 30.2778 53.5377 30.0168C53.6389 29.5978 54.1166 29.9104 54.4329 29.7621C54.5499 29.7073 54.591 29.5559 54.6859 29.4882C54.8789 29.3528 55.192 29.3335 55.1635 29.0692C55.1477 28.9338 54.9959 28.937 54.9105 28.8693C54.7935 28.7759 54.7049 28.4471 54.5372 28.431C54.4518 28.4213 54.3886 28.5116 54.3 28.5212C54.1071 28.5438 53.892 28.4278 53.718 28.5212C53.6358 28.5793 53.6927 28.6695 53.6295 28.7759C53.5788 28.8629 53.4555 28.8887 53.4049 28.9757C53.3479 29.0788 53.3606 29.2078 53.2847 29.2851C53.1613 29.4173 52.902 29.4398 52.747 29.5043C52.6774 29.5333 52.5888 29.6332 52.5224 29.6332C52.399 29.6332 52.3453 29.4302 52.2092 29.5043C52.1966 29.7009 52.3769 29.7783 52.4939 29.8685C52.6173 29.9652 52.747 30.0619 52.7912 30.2327C52.6711 30.5486 52.4749 30.2166 52.2852 30.2134C52.0732 30.2134 51.7664 30.7065 51.583 30.3036C51.6272 30.0909 51.8202 30.0587 51.8676 29.8459C51.6557 29.8911 51.4754 30.107 51.2255 30.1747C51.1212 30.2037 51.0199 30.1973 50.9282 30.2295C50.7511 30.2939 50.6246 30.4551 50.4379 30.5389C50.3652 30.5711 50.2766 30.5615 50.2007 30.5937C50.0204 30.6678 49.8053 30.8 49.6187 30.9225C49.4289 31.0482 49.2138 31.1803 49.0968 31.306C49.0336 31.3737 48.8691 31.6122 48.8722 31.6896C48.8786 31.7991 49.0462 31.8346 49.0525 31.9442C49.0494 32.0119 48.9545 32.1569 49.0241 32.2536C49.0842 32.3438 49.2075 32.2697 49.3372 32.289C49.5649 32.3245 49.7136 32.5533 49.8876 32.6726C50.0204 32.7628 50.2165 32.8692 50.3652 32.8918C50.5708 32.924 50.7985 32.8176 50.827 33.0207C50.8555 33.2141 50.6341 33.2818 50.6182 33.4042C50.7289 33.5815 50.5423 33.6685 50.5423 33.8232C50.5423 33.9489 50.6688 34.1391 50.7796 34.152C50.9282 34.1681 51.1496 33.9715 51.2129 33.7878C51.2856 33.5686 51.254 33.2721 51.3932 33.1109C52.0891 33.1335 52.6742 32.7242 52.6299 31.8507C52.6268 31.7637 52.5857 31.6541 52.6015 31.5574C52.6236 31.4156 52.8197 31.2963 52.7944 31.1191C52.9905 31.0449 52.981 30.6646 53.1835 30.6066C53.3511 30.5615 53.5441 30.7516 53.7655 30.7355C53.8382 30.7291 53.9299 30.6517 54.0027 30.6614C54.1482 30.6872 54.2368 30.9063 54.3443 31.0095C54.4424 31.0997 54.5436 31.0707 54.5689 31.1932C54.5404 31.3962 54.4234 31.4027 54.436 31.5961C54.4455 31.7637 54.5879 31.8894 54.6606 31.9055C54.7682 31.9313 54.9263 31.8604 55.0338 31.7959C55.2331 31.6799 55.4039 31.3318 55.5716 31.3769C55.7044 31.4124 55.8056 31.9216 55.8246 32.1086C55.8468 32.3052 55.8025 32.4567 55.8088 32.6371C55.8278 32.9466 56.1441 32.9143 56.2991 33.0755C56.3465 33.1238 56.3655 33.2495 56.4034 33.314C56.4794 33.4365 56.5711 33.4365 56.5837 33.5686C56.6122 33.8845 56.3497 33.9103 56.375 34.2616C56.3212 34.397 56.1852 34.3905 56.1947 34.571C56.2105 34.8579 56.5489 34.6387 56.6407 34.8643C56.6913 34.9836 56.6312 35.0738 56.5964 35.2479C56.7134 35.4155 56.7103 35.6862 56.5078 35.6862C56.3845 35.6862 56.3497 35.5218 56.2232 35.4864V35.496ZM40.1074 35.0222C40.177 34.9352 40.079 34.7451 39.9746 34.8224C39.9651 34.8901 39.9936 35.0512 40.1074 35.0222ZM50.5139 36.6821C50.4506 36.608 50.2482 36.6306 50.1121 36.6467C50.0141 36.6596 49.9002 36.6854 49.8876 36.7756C50.0426 36.8626 50.4664 36.9239 50.5139 36.6854V36.6821ZM49.7389 36.3727C49.8559 36.2599 49.8053 36.0279 49.6788 35.9892C49.6314 35.9731 49.5649 36.0343 49.4859 36.0246C49.4005 36.0182 49.3182 35.9215 49.2486 35.915C49.1284 35.9021 49.0082 35.9731 48.964 36.044C48.9608 36.1536 49.0304 36.1697 49.0241 36.2825C48.8786 36.4082 48.9545 36.8336 49.1 36.8497C49.2518 36.8659 49.3309 36.3824 49.5333 36.3373C49.6061 36.3212 49.644 36.3888 49.7421 36.3727H49.7389ZM49.5301 37.1044C49.3182 37.0109 49.1221 37.1656 48.9481 37.1946C48.8438 37.2107 48.6571 37.1688 48.6793 37.359C48.6983 37.5137 48.8944 37.4589 49.0082 37.4138C49.2423 37.3235 49.3941 37.243 49.5301 37.1044ZM48.8754 35.7184C49.1727 35.5637 48.8153 35.0867 48.6825 35.0416C48.4421 34.9642 48.0973 35.2575 47.8189 35.351C47.6608 35.4026 47.5121 35.409 47.4773 35.5702C47.6197 35.857 47.898 35.5089 48.1036 35.5508C48.208 35.5734 48.2681 35.7474 48.3725 35.77C48.4421 35.7861 48.8501 35.7313 48.8786 35.7152L48.8754 35.7184ZM48.6666 36.0117C48.6065 35.9215 48.2713 36.0214 48.1732 36.102C48.1068 36.1568 48.0625 36.2954 47.9929 36.3953C47.9233 36.4984 47.8442 36.579 47.7842 36.6692C47.7304 36.7498 47.4299 37.2849 47.664 37.3461C47.7652 37.3719 47.9708 37.114 47.9929 37.0173C48.0593 36.6821 48.1827 36.4436 48.3946 36.2857C48.518 36.1955 48.6445 36.2051 48.6635 36.0117H48.6666ZM46.8036 33.9683C46.9712 33.9618 47.082 33.3591 46.8036 33.4397C46.617 33.4945 46.5727 33.978 46.8036 33.9683ZM46.0002 47.66C46.0065 47.6342 46.0223 47.6149 46.0287 47.5859C45.9844 47.4054 45.8389 47.6536 46.0002 47.66ZM39.6931 32.3825C39.6962 32.3471 39.6773 32.3406 39.6773 32.3084C39.633 32.3084 39.5792 32.2987 39.5887 32.3632C39.6108 32.4148 39.6678 32.4244 39.6931 32.3825ZM55.3628 29.5172C55.4356 29.5269 55.4767 29.5011 55.4672 29.4076C55.4008 29.3496 55.3027 29.4269 55.3628 29.5172ZM53.6484 27.7284C53.6295 27.7026 53.5788 27.7026 53.5599 27.7284V27.8025C53.6231 27.8186 53.6358 27.7735 53.6484 27.7284ZM47.9834 29.1336C48.034 29.095 48.1099 29.0402 48.072 28.9499C47.9075 28.8564 47.6292 28.9274 47.3856 28.8951C47.2464 28.6566 47.0187 28.6212 46.9966 29.0047C47.2749 29.2819 47.6956 28.8758 47.9803 29.1336H47.9834ZM45.3138 31.0127C45.3992 30.9772 45.5162 30.9966 45.5384 30.8838C45.4688 30.8161 45.396 30.7226 45.3138 30.7194C45.2063 30.7162 45.1525 30.8322 45.045 30.9031C44.9184 30.9837 44.7445 31.003 44.7318 31.1416C44.9627 31.1964 45.1715 31.0739 45.3138 31.0127ZM45.2379 29.6977C45.3328 29.6783 45.4308 29.7299 45.4909 29.6235C45.4182 29.2207 44.9659 29.4688 44.7002 29.4946C44.6432 29.6074 44.5705 29.7009 44.5515 29.8588C44.7571 29.9233 45.0038 29.7428 45.2379 29.6945V29.6977ZM49.7104 48.353C49.8275 48.3304 49.7927 47.9985 49.6503 48.079C49.5428 48.1403 49.5997 48.3756 49.7104 48.353Z" fill="white"/>
<path d="M39.6741 32.302C39.6741 32.3342 39.6931 32.3406 39.69 32.3761C39.6646 32.418 39.6077 32.4115 39.5856 32.3567C39.5761 32.2923 39.6299 32.302 39.6741 32.302Z" fill="white"/>
<path d="M39.228 33.3785C39.1964 33.4977 39.111 33.5493 39.0193 33.5976C38.9908 33.5718 38.9655 33.5396 38.9434 33.5074C38.9497 33.3333 39.1521 33.2076 39.228 33.3785Z" fill="white"/>
</g>
<path d="M41.7554 59.102C40.0316 58.6411 38.6304 58.0255 37.5518 57.2552L39.6552 52.4431C40.6674 53.1232 41.844 53.6743 43.182 54.0901C44.5168 54.5091 45.8326 54.7154 47.1263 54.7154C49.584 54.7154 50.8144 54.0901 50.8144 52.8363C50.8144 52.1756 50.4633 51.6889 49.7643 51.3698C49.0621 51.0507 47.936 50.7155 46.3861 50.3642C44.6813 49.9903 43.2611 49.5907 42.116 49.162C40.9742 48.7333 39.9905 48.0468 39.1744 47.1024C38.3552 46.158 37.9471 44.8849 37.9471 43.2798C37.9471 41.8745 38.3235 40.6046 39.0795 39.4733C39.8355 38.342 40.9615 37.446 42.4576 36.7885C43.9569 36.131 45.7947 35.799 47.9708 35.799C49.4575 35.799 50.9251 35.9698 52.3706 36.3082C53.8161 36.6499 55.0877 37.1495 56.1853 37.807L54.2115 42.6513C52.0543 41.4652 49.9635 40.8722 47.936 40.8722C46.6645 40.8722 45.7377 41.0655 45.1557 41.4491C44.5737 41.8326 44.2827 42.3322 44.2827 42.9478C44.2827 43.5635 44.6275 44.0244 45.317 44.3338C46.0066 44.6432 47.1168 44.9591 48.6477 45.291C50.3716 45.6649 51.8013 46.0646 52.9336 46.4933C54.066 46.9219 55.0466 47.602 55.8753 48.5367C56.704 49.4714 57.1215 50.7381 57.1215 52.3432C57.1215 53.7259 56.7451 54.9797 55.9891 56.1013C55.2332 57.223 54.1008 58.119 52.592 58.7862C51.0833 59.4566 49.2487 59.7918 47.0947 59.7918C45.2633 59.7918 43.4825 59.5597 41.7586 59.0988L41.7554 59.102Z" fill="#407BFF"/>
<path d="M78.2349 54.2899V59.3309H60.0601V36.2631H77.8142V41.3041H66.3988V45.1911H76.4573V50.0677H66.3988V54.2867H78.2349V54.2899Z" fill="#407BFF"/>
<path d="M102.027 41.3653C101.018 39.541 99.6297 38.1132 97.8615 37.0818C96.0934 36.0504 94.1007 35.5315 91.8834 35.5315C89.6661 35.5315 87.6733 36.0472 85.9052 37.0818C84.1371 38.1132 82.7485 39.541 81.7395 41.3653C80.7305 43.1896 80.2275 45.2427 80.2275 47.5279C80.2275 49.8131 80.7305 51.8662 81.7395 53.6904C82.7485 55.5147 84.1371 56.9426 85.9052 57.9739C87.6733 59.0086 89.6661 59.5243 91.8834 59.5243C94.1007 59.5243 96.0934 59.0086 97.8615 57.9739C99.6297 56.9426 101.018 55.5147 102.027 53.6904C103.036 51.8662 103.539 49.8131 103.539 47.5279C103.539 45.2427 103.033 43.1896 102.027 41.3653Z" fill="#407BFF"/>
<path opacity="0.3" d="M84.5327 38.0262C83.4035 38.9319 82.4704 40.0438 81.7397 41.3621C81.4234 41.9326 81.164 42.5288 80.9458 43.1477L80.5631 44.4659C80.3416 45.4361 80.2246 46.4546 80.2246 47.5247C80.2246 49.8098 80.7275 51.863 81.7365 53.6872C82.7456 55.5115 84.1341 56.9393 85.9023 57.9707L91.8804 47.5247L84.5295 38.0262H84.5327Z" fill="black"/>
<path opacity="0.2" d="M84.5327 38.0262L91.8836 47.5247L92.3518 35.5283C92.3518 35.5283 88.186 35.0512 84.5327 38.0229V38.0262Z" fill="white"/>
<path d="M46.6074 72.7744V79.327" stroke="#407BFF" stroke-miterlimit="10"/>
<path d="M14.7554 19.8866V27.1998H22.8528" stroke="#407BFF" stroke-miterlimit="10"/>
<path d="M117.89 20.8503H125.402V26.2103" stroke="#407BFF" stroke-miterlimit="10"/>
<path d="M34.1577 0H1.29369C0.579203 0 0 0.5902 0 1.31825V20.1218C0 20.8499 0.579203 21.4401 1.29369 21.4401H34.1577C34.8722 21.4401 35.4514 20.8499 35.4514 20.1218V1.31825C35.4514 0.5902 34.8722 0 34.1577 0Z" fill="#407BFF"/>
<path opacity="0.5" d="M34.1577 0H1.29369C0.579203 0 0 0.5902 0 1.31825V20.1218C0 20.8499 0.579203 21.4401 1.29369 21.4401H34.1577C34.8722 21.4401 35.4514 20.8499 35.4514 20.1218V1.31825C35.4514 0.5902 34.8722 0 34.1577 0Z" fill="white"/>
<path d="M5.32959 11.9094C5.48458 11.7675 9.63449 7.59363 9.63449 7.59363L13.7275 9.64675L17.7287 4.85077L21.8217 10.8586L25.8135 8.20602" stroke="#263238" stroke-width="0.5" stroke-miterlimit="10"/>
<path d="M6.61382 13.7884H4.69385V18.1203H6.61382V13.7884Z" fill="#407BFF"/>
<path d="M10.5645 10.9263H8.64453V18.1203H10.5645V10.9263Z" fill="#407BFF"/>
<path d="M14.5879 11.6483H12.668V18.1203H14.5879V11.6483Z" fill="#407BFF"/>
<path d="M18.6871 7.59363H16.7671V18.1203H18.6871V7.59363Z" fill="#407BFF"/>
<path d="M22.8277 13.176H20.9077V18.1203H22.8277V13.176Z" fill="#407BFF"/>
<path d="M6.6834 11.4195C6.6834 11.9996 6.22159 12.4702 5.65225 12.4702C5.0829 12.4702 4.62109 11.9996 4.62109 11.4195C4.62109 10.8393 5.0829 10.3687 5.65225 10.3687C6.22159 10.3687 6.6834 10.8393 6.6834 11.4195Z" fill="#407BFF"/>
<path d="M10.6341 7.59362C10.6341 8.17378 10.1723 8.64436 9.60293 8.64436C9.03358 8.64436 8.57178 8.17378 8.57178 7.59362C8.57178 7.01347 9.03358 6.54289 9.60293 6.54289C10.1723 6.54289 10.6341 7.01347 10.6341 7.59362Z" fill="#407BFF"/>
<path d="M14.7557 9.31799C14.7557 9.89815 14.2939 10.3687 13.7245 10.3687C13.1552 10.3687 12.6934 9.89815 12.6934 9.31799C12.6934 8.73783 13.1552 8.26726 13.7245 8.26726C14.2939 8.26726 14.7557 8.73783 14.7557 9.31799Z" fill="#407BFF"/>
<path d="M18.7566 4.85077C18.7566 5.43092 18.2948 5.9015 17.7255 5.9015C17.1561 5.9015 16.6943 5.43092 16.6943 4.85077C16.6943 4.27061 17.1561 3.80003 17.7255 3.80003C18.2948 3.80003 18.7566 4.27061 18.7566 4.85077Z" fill="#407BFF"/>
<path d="M22.8499 10.8586C22.8499 11.4388 22.3881 11.9094 21.8188 11.9094C21.2494 11.9094 20.7876 11.4388 20.7876 10.8586C20.7876 10.2785 21.2494 9.80791 21.8188 9.80791C22.3881 9.80791 22.8499 10.2785 22.8499 10.8586Z" fill="#407BFF"/>
<path d="M26.9302 10.6943H25.0103V18.1203H26.9302V10.6943Z" fill="#407BFF"/>
<path opacity="0.3" d="M10.5645 10.9263H8.64453V18.1203H10.5645V10.9263Z" fill="black"/>
<path opacity="0.3" d="M18.6871 7.59363H16.7671V18.1203H18.6871V7.59363Z" fill="black"/>
<path opacity="0.3" d="M26.9302 10.6943H25.0103V18.1203H26.9302V10.6943Z" fill="black"/>
<path d="M31.1749 13.176H29.2549V18.1203H31.1749V13.176Z" fill="#407BFF"/>
<path d="M25.8105 8.20279L30.2135 10.6942" stroke="#263238" stroke-width="0.5" stroke-miterlimit="10"/>
<path d="M27.0691 8.2028C27.0691 8.78296 26.6073 9.25353 26.038 9.25353C25.4686 9.25353 25.0068 8.78296 25.0068 8.2028C25.0068 7.62264 25.4686 7.15207 26.038 7.15207C26.6073 7.15207 27.0691 7.62264 27.0691 8.2028Z" fill="#407BFF"/>
<path d="M30.2133 11.745C30.7828 11.745 31.2444 11.2746 31.2444 10.6943C31.2444 10.114 30.7828 9.64352 30.2133 9.64352C29.6438 9.64352 29.1821 10.114 29.1821 10.6943C29.1821 11.2746 29.6438 11.745 30.2133 11.745Z" fill="#407BFF"/>
<path d="M137.438 26.394H112.042C111.179 26.394 110.479 27.1068 110.479 27.9862V57.4711C110.479 58.3505 111.179 59.0634 112.042 59.0634H137.438C138.301 59.0634 139 58.3505 139 57.4711V27.9862C139 27.1068 138.301 26.394 137.438 26.394Z" fill="#407BFF"/>
<path opacity="0.5" d="M137.438 26.394H112.042C111.179 26.394 110.479 27.1068 110.479 27.9862V57.4711C110.479 58.3505 111.179 59.0634 112.042 59.0634H137.438C138.301 59.0634 139 58.3505 139 57.4711V27.9862C139 27.1068 138.301 26.394 137.438 26.394Z" fill="white"/>
<path d="M111.94 26.394H137.561C138.355 26.394 139 27.0515 139 27.8605V31.393H110.479V27.8863C110.479 27.0644 111.134 26.394 111.943 26.394H111.94Z" fill="#407BFF"/>
<path opacity="0.5" d="M137.928 29.2561C137.928 29.8588 137.447 30.3487 136.856 30.3487C136.264 30.3487 135.784 29.8588 135.784 29.2561C135.784 28.6534 136.264 28.1635 136.856 28.1635C137.447 28.1635 137.928 28.6534 137.928 29.2561Z" fill="white"/>
<path opacity="0.5" d="M134.885 29.2561C134.885 29.8588 134.404 30.3487 133.813 30.3487C133.222 30.3487 132.741 29.8588 132.741 29.2561C132.741 28.6534 133.222 28.1635 133.813 28.1635C134.404 28.1635 134.885 28.6534 134.885 29.2561Z" fill="white"/>
<path opacity="0.5" d="M131.842 29.2561C131.842 29.8588 131.362 30.3487 130.77 30.3487C130.179 30.3487 129.698 29.8588 129.698 29.2561C129.698 28.6534 130.179 28.1635 130.77 28.1635C131.362 28.1635 131.842 28.6534 131.842 29.2561Z" fill="white"/>
<path opacity="0.6" d="M135.166 35.5702H118.007V36.5887H135.166V35.5702Z" fill="white"/>
<path opacity="0.6" d="M130.552 37.7715H118.273V38.79H130.552V37.7715Z" fill="#263238"/>
<path d="M116.814 35.5702H113.439V36.5887H116.814V35.5702Z" fill="#407BFF"/>
<path d="M135.166 40.2179H118.007V41.2364H135.166V40.2179Z" fill="#407BFF"/>
<path d="M116.814 40.2179H113.439V41.2364H116.814V40.2179Z" fill="#407BFF"/>
<path d="M135.166 49.9033H118.007V50.9218H135.166V49.9033Z" fill="#407BFF"/>
<path opacity="0.6" d="M121.382 52.9201H118.007V53.9386H121.382V52.9201Z" fill="white"/>
<path d="M135.166 42.6674H118.007V43.6859H135.166V42.6674Z" fill="#407BFF"/>
<path opacity="0.6" d="M116.814 42.6674H113.439V43.6859H116.814V42.6674Z" fill="#263238"/>
<path opacity="0.6" d="M130.286 44.8044H118.007V45.8229H130.286V44.8044Z" fill="white"/>
<path opacity="0.6" d="M124.146 47.0154H118.007V48.0339H124.146V47.0154Z" fill="#263238"/>
<path d="M63.4444 78.8468H41.8819C41.0189 78.8468 40.3193 79.5596 40.3193 80.439V98.4078C40.3193 99.2871 41.0189 100 41.8819 100H63.4444C64.3073 100 65.0069 99.2871 65.0069 98.4078V80.439C65.0069 79.5596 64.3073 78.8468 63.4444 78.8468Z" fill="#407BFF"/>
<path opacity="0.5" d="M63.4444 78.8468H41.8819C41.0189 78.8468 40.3193 79.5596 40.3193 80.439V98.4078C40.3193 99.2871 41.0189 100 41.8819 100H63.4444C64.3073 100 65.0069 99.2871 65.0069 98.4078V80.439C65.0069 79.5596 64.3073 78.8468 63.4444 78.8468Z" fill="white"/>
<path d="M41.7836 78.8468H63.5706C64.3646 78.8468 65.0098 79.5043 65.0098 80.3133V82.5372H40.3223V80.3391C40.3223 79.5172 40.977 78.8468 41.7868 78.8468H41.7836Z" fill="#407BFF"/>
<path opacity="0.5" d="M63.6123 80.9611C63.6123 81.4059 63.258 81.7669 62.8215 81.7669C62.385 81.7669 62.0308 81.4059 62.0308 80.9611C62.0308 80.5163 62.385 80.1553 62.8215 80.1553C63.258 80.1553 63.6123 80.5163 63.6123 80.9611Z" fill="white"/>
<path opacity="0.5" d="M61.3662 80.9611C61.3662 81.4059 61.0119 81.7669 60.5754 81.7669C60.1389 81.7669 59.7847 81.4059 59.7847 80.9611C59.7847 80.5163 60.1389 80.1553 60.5754 80.1553C61.0119 80.1553 61.3662 80.5163 61.3662 80.9611Z" fill="white"/>
<path opacity="0.5" d="M59.1206 80.9611C59.1206 81.4059 58.7663 81.7669 58.3298 81.7669C57.8933 81.7669 57.5391 81.4059 57.5391 80.9611C57.5391 80.5163 57.8933 80.1553 58.3298 80.1553C58.7663 80.1553 59.1206 80.5163 59.1206 80.9611Z" fill="white"/>
<path d="M52.2759 91.2106L54.4173 85.2156C55.2143 85.5122 55.945 85.9698 56.565 86.5629C57.1849 87.1559 57.6784 87.8682 58.0168 88.6611L52.279 91.2074L52.2759 91.2106Z" fill="#F5F5F5"/>
<path d="M52.2758 91.2106L54.1009 97.3119C53.5094 97.4957 52.8957 97.5891 52.2758 97.5891C48.8407 97.5891 46.0161 94.7109 46.0161 91.2106C46.0161 87.7103 48.8407 84.8321 52.2758 84.8321C52.997 84.8321 53.7118 84.9578 54.3887 85.2059L52.2758 91.2106Z" fill="#407BFF"/>
<path d="M52.2759 91.2106L58.0263 88.6901C58.3616 89.4862 58.5355 90.3436 58.5355 91.2106C58.5355 94.0018 56.7389 96.4804 54.1231 97.3055L52.2759 91.2106Z" fill="#407BFF"/>
<path opacity="0.3" d="M52.2759 91.2106L58.0263 88.6901C58.3616 89.4862 58.5355 90.3436 58.5355 91.2106C58.5355 94.0018 56.7389 96.4804 54.1231 97.3055L52.2759 91.2106Z" fill="black"/>
</g>
<defs>
<clipPath id="clip0_421_1338">
<rect width="139" height="100" fill="white"/>
</clipPath>
</defs>
</svg>
