<svg width="75" height="100" viewBox="0 0 75 100" fill="none" xmlns="http://www.w3.org/2000/svg">
<g clip-path="url(#clip0_713_6)">
<path d="M63.34 1.31077V98.5785C63.34 99.3785 62.7095 100 61.9251 100H13.9222C13.2012 100 12.6582 99.4308 12.6582 98.6954V1.19385C12.6582 0.556923 13.1168 0 13.7412 0H25.1386C25.4946 0 25.8174 0.236923 25.9501 0.578462L26.472 1.88923C26.6047 2.22769 26.9275 2.46154 27.2835 2.46154H48.7418C49.0978 2.46154 49.4206 2.23692 49.5533 1.89846L50.0752 0.581538C50.208 0.24 50.5308 0 50.8868 0H62.1031C62.7909 0 63.34 0.609231 63.34 1.31077Z" fill="#407BFF"/>
<path opacity="0.6" d="M63.34 1.31077V98.5785C63.34 99.3785 62.7095 100 61.9251 100H13.9222C13.2012 100 12.6582 99.4308 12.6582 98.6954V1.19385C12.6582 0.556923 13.1168 0 13.7412 0H25.1386C25.4946 0 25.8174 0.236923 25.9501 0.578462L26.472 1.88923C26.6047 2.22769 26.9275 2.46154 27.2835 2.46154H48.7418C49.0978 2.46154 49.4206 2.23692 49.5533 1.89846L50.0752 0.581538C50.208 0.24 50.5308 0 50.8868 0H62.1031C62.7909 0 63.34 0.609231 63.34 1.31077Z" fill="white"/>
<path d="M26.6862 73.8338H16.233C15.6699 73.8338 15.2134 74.2995 15.2134 74.8738V85.5354C15.2134 86.1098 15.6699 86.5754 16.233 86.5754H26.6862C27.2493 86.5754 27.7058 86.1098 27.7058 85.5354V74.8738C27.7058 74.2995 27.2493 73.8338 26.6862 73.8338Z" fill="white"/>
<path opacity="0.5" d="M25.0599 76.5323H17.8589V83.8769H25.0599V76.5323Z" fill="#407BFF"/>
<path opacity="0.3" d="M17.8589 76.5323V83.8769H25.0599V76.5323H17.8589ZM21.2256 80.2062L18.1877 83.3046V77.1108L21.2256 80.2092V80.2062ZM18.423 76.8708H24.4958L21.4579 79.9692L18.42 76.8708H18.423ZM21.4609 80.4462L24.4988 83.5446H18.426L21.4639 80.4462H21.4609ZM21.6932 80.2092L24.7311 77.1108V83.3046L21.6932 80.2062V80.2092Z" fill="white"/>
<path opacity="0.75" d="M27.8142 89.2338H15.1016V90.6954H27.8142V89.2338Z" fill="#407BFF"/>
<path d="M15.6232 89.6215H15.2612V89.4892H16.1331V89.6215H15.7711V90.5631H15.6232V89.6215Z" fill="white"/>
<path d="M43.004 73.7077H32.5509C31.9878 73.7077 31.5312 74.1733 31.5312 74.7477V85.4092C31.5312 85.9836 31.9878 86.4492 32.5509 86.4492H43.004C43.5672 86.4492 44.0237 85.9836 44.0237 85.4092V74.7477C44.0237 74.1733 43.5672 73.7077 43.004 73.7077Z" fill="white"/>
<path opacity="0.5" d="M41.3778 76.4031H34.1768V83.7477H41.3778V76.4031Z" fill="#407BFF"/>
<path opacity="0.3" d="M34.1768 76.4031V83.7477H41.3778V76.4031H34.1768ZM37.5435 80.0769L34.5056 83.1754V76.9815L37.5435 80.08V80.0769ZM34.7409 76.7415H40.8137L37.7758 79.84L34.7379 76.7415H34.7409ZM37.7788 80.3138L40.8167 83.4123H34.7439L37.7818 80.3138H37.7788ZM38.0111 80.0769L41.049 76.9785V83.1723L38.0111 80.0738V80.0769Z" fill="white"/>
<path opacity="0.75" d="M44.1321 89.1077H31.4194V90.5692H44.1321V89.1077Z" fill="#407BFF"/>
<path d="M31.9411 89.4954H31.5791V89.3631H32.4509V89.4954H32.0889V90.4369H31.9411V89.4954Z" fill="white"/>
<path d="M59.3214 73.5785H48.8683C48.3052 73.5785 47.8486 74.0441 47.8486 74.6185V85.28C47.8486 85.8544 48.3052 86.32 48.8683 86.32H59.3214C59.8846 86.32 60.3411 85.8544 60.3411 85.28V74.6185C60.3411 74.0441 59.8846 73.5785 59.3214 73.5785Z" fill="white"/>
<path opacity="0.5" d="M57.6952 76.2769H50.4941V83.6215H57.6952V76.2769Z" fill="#407BFF"/>
<path opacity="0.3" d="M50.4941 76.2769V83.6215H57.6952V76.2769H50.4941ZM53.8609 79.9508L50.823 83.0492V76.8554L53.8609 79.9538V79.9508ZM51.0583 76.6154H57.131L54.0931 79.7138L51.0553 76.6154H51.0583ZM54.0962 80.1877L57.1341 83.2861H51.0613L54.0992 80.1877H54.0962ZM54.3285 79.9508L57.3663 76.8523V83.0461L54.3285 79.9477V79.9508Z" fill="white"/>
<path opacity="0.75" d="M60.4495 88.9815H47.7368V90.4431H60.4495V88.9815Z" fill="#407BFF"/>
<path d="M48.2585 89.3692H47.8965V89.2369H48.7683V89.3692H48.4063V90.3108H48.2585V89.3692Z" fill="white"/>
<path d="M60.3049 9.07692H15.6868C15.3636 9.07692 15.1016 9.34417 15.1016 9.67384V30.9354C15.1016 31.2651 15.3636 31.5323 15.6868 31.5323H60.3049C60.6281 31.5323 60.8901 31.2651 60.8901 30.9354V9.67384C60.8901 9.34417 60.6281 9.07692 60.3049 9.07692Z" fill="white"/>
<path opacity="0.75" d="M17.3339 20.7569C17.8938 20.7569 18.3476 20.294 18.3476 19.7231C18.3476 19.1521 17.8938 18.6892 17.3339 18.6892C16.7741 18.6892 16.3203 19.1521 16.3203 19.7231C16.3203 20.294 16.7741 20.7569 17.3339 20.7569Z" fill="#407BFF"/>
<path d="M16.833 19.7231L17.6174 20.2646V19.1815L16.833 19.7231Z" fill="white"/>
<path opacity="0.75" d="M58.6635 20.7569C59.2234 20.7569 59.6772 20.294 59.6772 19.7231C59.6772 19.1521 59.2234 18.6892 58.6635 18.6892C58.1037 18.6892 57.6499 19.1521 57.6499 19.7231C57.6499 20.294 58.1037 20.7569 58.6635 20.7569Z" fill="#407BFF"/>
<path d="M59.1613 19.7231L58.377 19.1815V20.2646L59.1613 19.7231Z" fill="white"/>
<path opacity="0.75" d="M48.2527 14.5108H22.7036V17.1077H48.2527V14.5108Z" fill="#407BFF"/>
<path opacity="0.75" d="M48.2527 17.8831H22.7036V20.48H48.2527V17.8831Z" fill="#407BFF"/>
<path opacity="0.75" d="M43.6279 21.5108H22.7036V24.1077H43.6279V21.5108Z" fill="#407BFF"/>
<path d="M23.6328 15.2H22.9902V14.9631H24.5378V15.2H23.8953V16.8708H23.6298V15.2H23.6328Z" fill="white"/>
<path opacity="0.75" d="M33.8297 30.28C33.8297 30.5385 33.6246 30.7477 33.3711 30.7477C33.1177 30.7477 32.9126 30.5385 32.9126 30.28C32.9126 30.0215 33.1177 29.8123 33.3711 29.8123C33.6246 29.8123 33.8297 30.0215 33.8297 30.28Z" fill="#407BFF"/>
<path opacity="0.75" d="M36.1437 30.28C36.1437 30.5385 35.9385 30.7477 35.6851 30.7477C35.4317 30.7477 35.2266 30.5385 35.2266 30.28C35.2266 30.0215 35.4317 29.8123 35.6851 29.8123C35.9385 29.8123 36.1437 30.0215 36.1437 30.28Z" fill="#407BFF"/>
<path opacity="0.75" d="M38.4542 30.28C38.4542 30.5385 38.2491 30.7477 37.9957 30.7477C37.7422 30.7477 37.5371 30.5385 37.5371 30.28C37.5371 30.0215 37.7422 29.8123 37.9957 29.8123C38.2491 29.8123 38.4542 30.0215 38.4542 30.28Z" fill="#407BFF"/>
<path opacity="0.75" d="M40.7682 30.28C40.7682 30.5385 40.563 30.7477 40.3096 30.7477C40.0562 30.7477 39.8511 30.5385 39.8511 30.28C39.8511 30.0215 40.0562 29.8123 40.3096 29.8123C40.563 29.8123 40.7682 30.0215 40.7682 30.28Z" fill="#407BFF"/>
<path opacity="0.75" d="M43.0792 30.28C43.0792 30.5385 42.8741 30.7477 42.6207 30.7477C42.3673 30.7477 42.1621 30.5385 42.1621 30.28C42.1621 30.0215 42.3673 29.8123 42.6207 29.8123C42.8741 29.8123 43.0792 30.0215 43.0792 30.28Z" fill="#407BFF"/>
<path d="M60.8901 34.7046H15.1016V38.3539H60.8901V34.7046Z" fill="white"/>
<path opacity="0.75" d="M60.8932 34.6615H57.2339V38.3938H60.8932V34.6615Z" fill="#407BFF"/>
<path d="M15.8859 41.1723H56.4887C56.9201 41.1723 57.273 41.5292 57.273 41.9723V54.5446C57.273 54.9846 56.9231 55.3446 56.4887 55.3446H15.8859C15.4545 55.3446 15.1016 54.9877 15.1016 54.5446V41.9723C15.1016 41.5323 15.4515 41.1723 15.8859 41.1723Z" fill="white"/>
<path opacity="0.5" d="M30.1732 43.1385H16.9839V53.3815H30.1732V43.1385Z" fill="#407BFF"/>
<path opacity="0.3" d="M16.9839 43.1385V53.3815H30.1732V43.1385H16.9839ZM29.5729 43.4462L23.5786 48.0677L17.5842 43.4462H29.5729ZM17.2856 43.6L23.3282 48.2585L17.2856 52.9169V43.6ZM17.5842 53.0738L23.5786 48.4523L29.5729 53.0738H17.5842ZM23.8289 48.2585L29.8715 43.6V52.9169L23.8289 48.2585Z" fill="white"/>
<path opacity="0.75" d="M55.6017 43.2923H32.2217V44.6277H55.6017V43.2923Z" fill="#407BFF"/>
<path opacity="0.75" d="M55.6017 45.64H32.2217V46.9754H55.6017V45.64Z" fill="#407BFF"/>
<path opacity="0.75" d="M42.9674 48.12H32.2217V49.4554H42.9674V48.12Z" fill="#407BFF"/>
<path d="M32.6985 43.6462H32.3696V43.5231H33.1661V43.6462H32.8372V44.5046H32.7015V43.6462H32.6985Z" fill="white"/>
<path d="M15.8859 56.5569H56.4887C56.9201 56.5569 57.273 56.9138 57.273 57.3569V69.9292C57.273 70.3692 56.9231 70.7292 56.4887 70.7292H15.8859C15.4545 70.7292 15.1016 70.3723 15.1016 69.9292V57.3569C15.1016 56.9169 15.4515 56.5569 15.8859 56.5569Z" fill="white"/>
<path opacity="0.5" d="M30.1732 58.5231H16.9839V68.7662H30.1732V58.5231Z" fill="#407BFF"/>
<path opacity="0.3" d="M16.9839 58.5231V68.7662H30.1732V58.5231H16.9839ZM29.5729 58.8308L23.5786 63.4523L17.5842 58.8308H29.5729ZM17.2856 58.9846L23.3282 63.6431L17.2856 68.3015V58.9846ZM17.5842 68.4585L23.5786 63.8369L29.5729 68.4585H17.5842ZM23.8289 63.6431L29.8715 58.9846V68.3015L23.8289 63.6431Z" fill="white"/>
<path opacity="0.75" d="M55.6017 58.6769H32.2217V60.0123H55.6017V58.6769Z" fill="#407BFF"/>
<path opacity="0.75" d="M55.6017 61.0246H32.2217V62.36H55.6017V61.0246Z" fill="#407BFF"/>
<path opacity="0.75" d="M42.9674 63.5046H32.2217V64.84H42.9674V63.5046Z" fill="#407BFF"/>
<path d="M32.6985 59.0308H32.3696V58.9077H33.1661V59.0308H32.8372V59.8892H32.7015V59.0308H32.6985Z" fill="white"/>
<path d="M60.4499 41.1877H58.8208V70.7323H60.4499V41.1877Z" fill="white"/>
<path opacity="0.75" d="M60.4499 42.7939H58.8208V47.4215H60.4499V42.7939Z" fill="#407BFF"/>
<path d="M63.34 1.31077V6.07692H12.6582V1.19385C12.6582 0.556923 13.1168 0 13.7412 0H25.1386C25.4946 0 25.8174 0.236923 25.9501 0.578462L26.472 1.88923C26.6047 2.22769 26.9275 2.46154 27.2835 2.46154H48.7418C49.0978 2.46154 49.4206 2.23692 49.5533 1.89846L50.0752 0.581538C50.208 0.24 50.5308 0 50.8868 0H62.1031C62.7909 0 63.34 0.609231 63.34 1.31077Z" fill="#407BFF"/>
<path d="M12.6582 93.5385H63.34V98.5785C63.34 99.3785 62.7095 100 61.9251 100H13.9222C13.2012 100 12.6582 99.4308 12.6582 98.6954V93.5385Z" fill="#407BFF"/>
<path d="M10.0944 0.504608H0.905273V5.06768H10.0944V0.504608Z" fill="#407BFF"/>
<path d="M2.42578 1.75076H8.57397" stroke="white" stroke-linecap="round" stroke-linejoin="round"/>
<path d="M2.42578 2.78769H8.57397" stroke="white" stroke-linecap="round" stroke-linejoin="round"/>
<path d="M2.42578 3.82462H5.49987" stroke="white" stroke-linecap="round" stroke-linejoin="round"/>
<path d="M7.33398 4.87999L16.4054 12.9046" stroke="#407BFF" stroke-miterlimit="10"/>
<path d="M16.4055 13.4646C16.7087 13.4646 16.9546 13.2139 16.9546 12.9046C16.9546 12.5953 16.7087 12.3446 16.4055 12.3446C16.1023 12.3446 15.8564 12.5953 15.8564 12.9046C15.8564 13.2139 16.1023 13.4646 16.4055 13.4646Z" fill="#407BFF"/>
<path d="M9.18909 57.2154H0V61.7785H9.18909V57.2154Z" fill="#407BFF"/>
<path d="M1.52051 58.4615H7.66869" stroke="white" stroke-linecap="round" stroke-linejoin="round"/>
<path d="M1.52051 59.4985H7.66869" stroke="white" stroke-linecap="round" stroke-linejoin="round"/>
<path d="M1.52051 60.5354H4.5946" stroke="white" stroke-linecap="round" stroke-linejoin="round"/>
<path d="M15.5002 60.0585C15.8035 60.0585 16.0493 59.8077 16.0493 59.4985C16.0493 59.1892 15.8035 58.9385 15.5002 58.9385C15.197 58.9385 14.9512 59.1892 14.9512 59.4985C14.9512 59.8077 15.197 60.0585 15.5002 60.0585Z" fill="#407BFF"/>
<path d="M15.5004 59.4985H8.63721" stroke="#407BFF" stroke-miterlimit="10"/>
<path d="M74.1012 22.1046H64.9121V26.6677H74.1012V22.1046Z" fill="#407BFF"/>
<path d="M66.4326 23.3477H72.5778" stroke="white" stroke-linecap="round" stroke-linejoin="round"/>
<path d="M66.4326 24.3846H72.5778" stroke="white" stroke-linecap="round" stroke-linejoin="round"/>
<path d="M66.4326 25.4215H69.5067" stroke="white" stroke-linecap="round" stroke-linejoin="round"/>
<path d="M54.5525 36.2954C54.8557 36.2954 55.1015 36.0447 55.1015 35.7354C55.1015 35.4261 54.8557 35.1754 54.5525 35.1754C54.2492 35.1754 54.0034 35.4261 54.0034 35.7354C54.0034 36.0447 54.2492 36.2954 54.5525 36.2954Z" fill="#407BFF"/>
<path d="M54.5522 35.7354L67.8049 25.6154" stroke="#407BFF" stroke-miterlimit="10"/>
<path d="M75.0001 82.6985H65.811V87.2615H75.0001V82.6985Z" fill="#407BFF"/>
<path d="M67.3315 83.9415H73.4797" stroke="white" stroke-linecap="round" stroke-linejoin="round"/>
<path d="M67.3315 84.9785H73.4797" stroke="white" stroke-linecap="round" stroke-linejoin="round"/>
<path d="M67.3315 86.0154H70.4056" stroke="white" stroke-linecap="round" stroke-linejoin="round"/>
<path d="M56.0004 84.9785C56.0004 85.2862 55.7561 85.5385 55.4514 85.5385C55.1467 85.5385 54.9023 85.2892 54.9023 84.9785C54.9023 84.6677 55.1467 84.4185 55.4514 84.4185C55.7561 84.4185 56.0004 84.6677 56.0004 84.9785Z" fill="#407BFF"/>
<path d="M55.4512 84.9785H66.4895" stroke="#407BFF" stroke-miterlimit="10"/>
</g>
<defs>
<clipPath id="clip0_713_6">
<rect width="75" height="100" fill="white"/>
</clipPath>
</defs>
</svg>
