<svg width="242" height="46" viewBox="0 0 242 46" fill="none" xmlns="http://www.w3.org/2000/svg">
<g clip-path="url(#clip0_421_44)">
<path d="M16.3955 28.1317C17.427 27.28 18.1057 26.0712 18.4314 24.5603H24.4576C24.2133 26.6207 23.5618 28.4339 22.5031 30.0273C21.4445 31.6207 20.033 32.857 18.3228 33.7086C16.6398 34.5603 14.7126 34.9998 12.5681 34.9998C10.2065 34.9998 8.08919 34.4778 6.1619 33.4064C4.23461 32.335 2.74164 30.824 1.6287 28.9284C0.542899 27.0328 0 24.8899 0 22.4998C0 20.1097 0.542899 17.9669 1.6287 16.0712C2.71449 14.1756 4.23461 12.6647 6.13476 11.5932C8.08919 10.5218 10.2065 9.99982 12.5681 9.99982C14.7126 9.99982 16.6398 10.4394 18.35 11.3185C20.0601 12.1976 21.4445 13.4064 22.5303 14.9998C23.5889 16.5932 24.2404 18.4064 24.4847 20.4669H18.4314C18.1057 18.9284 17.427 17.7471 16.3955 16.8954C15.364 16.0438 14.0882 15.6042 12.5138 15.6042C11.238 15.6042 10.0979 15.9064 9.1207 16.5108C8.14348 17.1152 7.35628 17.9394 6.81338 18.9833C6.24333 19.9998 5.97189 21.1811 5.97189 22.4998C5.97189 23.8185 6.24333 24.9998 6.81338 26.0438C7.38342 27.0877 8.14348 27.9119 9.1207 28.5163C10.0979 29.1207 11.238 29.4229 12.5138 29.4229C14.0882 29.4229 15.364 28.9833 16.3955 28.1317Z" fill="#1C1C1C"/>
<path d="M56.2988 34.5053V10.4943H62.1893V29.2581H73.9159V34.5328H56.2988V34.5053Z" fill="#1C1C1C"/>
<path d="M76.7114 34.5053V10.4943H82.6019V29.2581H94.3285V34.5328H76.7114V34.5053Z" fill="#1C1C1C"/>
<path d="M101.712 34.5053H95.4414L105.539 10.3569H111.158L121.202 34.5053H114.959L113.357 30.3844H103.313L101.712 34.5053ZM105.241 25.302H111.375L108.308 17.3075L105.241 25.302Z" fill="#1C1C1C"/>
<path d="M143.543 24.2031C144.303 25.2745 144.683 26.4833 144.683 27.8295C144.683 29.8625 143.923 31.4833 142.402 32.6921C140.882 33.9009 138.792 34.5053 136.186 34.5053H123.754V10.4943H135.481C138.032 10.4943 140.041 11.0712 141.48 12.1976C142.918 13.3515 143.651 14.8899 143.651 16.868C143.651 18.0218 143.353 19.0932 142.755 20.1097C142.158 21.0987 141.344 21.7855 140.339 22.1427C141.724 22.4449 142.783 23.1317 143.543 24.2031ZM134.558 20.2745C135.643 20.2745 136.485 20.0548 137.082 19.5877C137.679 19.1207 137.978 18.4888 137.978 17.6921C137.978 16.9504 137.679 16.3734 137.136 15.9614C136.566 15.5493 135.698 15.357 134.585 15.357H129.672V20.2745H134.558ZM138.005 28.8734C138.575 28.4064 138.874 27.802 138.874 27.0603C138.874 26.3185 138.575 25.769 138.005 25.4119C137.435 25.0273 136.593 24.835 135.481 24.835H129.617V29.5603H135.372C136.566 29.5603 137.435 29.3405 138.005 28.8734Z" fill="#1C1C1C"/>
<path d="M165.665 11.6482C167.593 12.7471 169.086 14.2581 170.199 16.1811C171.312 18.0767 171.854 20.1921 171.854 22.4998C171.854 24.8075 171.312 26.9229 170.199 28.8185C169.086 30.7141 167.593 32.2251 165.665 33.3515C163.738 34.4504 161.621 34.9998 159.259 34.9998C156.898 34.9998 154.78 34.4504 152.853 33.3515C150.926 32.2526 149.433 30.7416 148.347 28.8185C147.261 26.9229 146.718 24.8075 146.718 22.4998C146.718 20.1921 147.261 18.0767 148.347 16.1811C149.433 14.2855 150.953 12.7745 152.853 11.6482C154.78 10.5493 156.898 9.99982 159.259 9.99982C161.621 9.99982 163.765 10.5493 165.665 11.6482ZM162.652 28.5163C163.657 27.8844 164.444 27.0328 165.014 25.9614C165.584 24.8899 165.855 23.7361 165.855 22.4723C165.855 21.2361 165.557 20.0548 165.014 18.9833C164.444 17.9119 163.657 17.0603 162.652 16.4284C161.648 15.7965 160.535 15.4943 159.259 15.4943C158.011 15.4943 156.87 15.7965 155.866 16.4284C154.862 17.0603 154.075 17.9119 153.504 18.9833C152.934 20.0548 152.663 21.2086 152.663 22.4723C152.663 23.7086 152.934 24.8899 153.504 25.9614C154.075 27.0328 154.862 27.8844 155.866 28.5163C156.87 29.1482 157.983 29.4504 159.259 29.4504C160.535 29.4504 161.648 29.1482 162.652 28.5163Z" fill="#1C1C1C"/>
<path d="M181.355 34.5053H175.465V10.4943H185.861C187.816 10.4943 189.526 10.824 191.019 11.5108C192.485 12.1976 193.652 13.1592 194.466 14.4504C195.281 15.7141 195.688 17.2251 195.688 18.9284C195.688 20.5767 195.281 22.0603 194.493 23.3515C193.706 24.6427 192.593 25.6592 191.155 26.4009L197.262 34.5328H190.15L185.047 27.5822H181.382V34.5053H181.355ZM188.63 21.291C189.417 20.6866 189.797 19.9174 189.797 18.9559C189.797 18.0218 189.417 17.2526 188.63 16.6482C187.843 16.0438 186.893 15.769 185.726 15.769H181.355V22.1976H185.726C186.893 22.1976 187.843 21.8954 188.63 21.291Z" fill="#1C1C1C"/>
<path d="M204.537 34.5053H198.267L208.365 10.3569H213.984L224.027 34.5053H217.784L216.182 30.3844H206.139L204.537 34.5053ZM208.066 25.302H214.201L211.133 17.3075L208.066 25.302Z" fill="#1C1C1C"/>
<path d="M41.1519 30.9339C41.1519 30.3295 41.2877 29.78 41.5048 29.258C41.0977 29.3404 40.6905 29.3679 40.2833 29.3679C37.2702 29.3679 34.6915 27.3624 33.8228 24.6152C33.0899 25.5218 31.977 26.0987 30.7011 26.0987C29.7782 26.0987 28.9096 25.769 28.231 25.247C29.4796 30.824 34.3929 34.9998 40.2833 34.9998C41.3691 34.9998 42.4006 34.8624 43.405 34.5877C42.0477 33.9284 41.1519 32.5547 41.1519 30.9339Z" fill="#1C1C1C"/>
<path d="M52.6071 22.4998C52.6071 19.1207 51.277 16.0712 49.1325 13.8185C49.1325 13.9009 49.1325 14.0108 49.1325 14.0932C49.1325 16.2086 47.531 17.9394 45.5223 18.1591C46.4723 19.3405 47.0424 20.8514 47.0424 22.4998C47.0424 24.1756 46.4452 25.6866 45.4951 26.8954C47.5581 27.0602 49.1868 28.8185 49.1868 30.9613C49.1868 31.0163 49.1868 31.0987 49.1868 31.1536C51.3041 28.9009 52.6071 25.8514 52.6071 22.4998Z" fill="#1C1C1C"/>
<path d="M30.6737 17.9668C32.0581 17.9668 33.2797 18.6811 34.0126 19.7526C35.0712 17.3075 37.46 15.6042 40.2559 15.6042C40.6631 15.6042 41.0431 15.6317 41.4231 15.7141C41.206 15.2196 41.0974 14.6701 41.0974 14.0932C41.0974 12.4723 42.0475 11.0712 43.4047 10.4119C42.4004 10.1372 41.3417 9.99982 40.2559 9.99982C34.7726 9.99982 30.1308 13.5987 28.5293 18.5987C29.1536 18.1866 29.8865 17.9668 30.6737 17.9668Z" fill="#1C1C1C"/>
<path d="M45.1694 27.8295C43.4864 27.8295 42.1021 29.2306 42.1021 30.9339C42.1021 32.6372 43.4864 34.0383 45.1694 34.0383C46.8524 34.0383 48.2368 32.6372 48.2368 30.9339C48.2368 29.2306 46.8524 27.8295 45.1694 27.8295Z" fill="#949396"/>
<path d="M45.1421 17.1976C46.8362 17.1976 48.2095 15.8077 48.2095 14.0932C48.2095 12.3787 46.8362 10.9888 45.1421 10.9888C43.448 10.9888 42.0747 12.3787 42.0747 14.0932C42.0747 15.8077 43.448 17.1976 45.1421 17.1976Z" fill="#5386E4"/>
<path d="M30.6738 18.9284C28.9908 18.9284 27.6064 20.3295 27.6064 22.0328C27.6064 23.7361 28.9908 25.1372 30.6738 25.1372C32.3568 25.1372 33.7412 23.7361 33.7412 22.0328C33.7683 20.3295 32.384 18.9284 30.6738 18.9284Z" fill="#0D209F"/>
<path d="M221.638 14.78C220.336 14.78 219.277 13.7086 219.277 12.3899C219.277 11.0712 220.336 9.99982 221.638 9.99982C222.941 9.99982 224 11.0712 224 12.3899C224 13.7086 222.941 14.78 221.638 14.78ZM221.638 10.5493C220.634 10.5493 219.82 11.3734 219.82 12.3899C219.82 13.4064 220.634 14.2306 221.638 14.2306C222.643 14.2306 223.457 13.4064 223.457 12.3899C223.457 11.3734 222.643 10.5493 221.638 10.5493Z" fill="#1C1C1C"/>
<path d="M222.561 12.857V13.2965H222.181V12.8844C222.181 12.6647 222.019 12.6097 221.72 12.6097H221.041V13.2965H220.688V11.4833H221.91C222.317 11.4833 222.589 11.6482 222.589 12.0328C222.589 12.335 222.399 12.4723 222.127 12.4998C222.426 12.5273 222.561 12.6097 222.561 12.857ZM221.91 12.335C222.1 12.335 222.236 12.2251 222.236 12.0603C222.236 11.8954 222.1 11.813 221.91 11.813H221.069V12.335H221.91Z" fill="#1C1C1C"/>
</g>
<defs>
<clipPath id="clip0_421_44">
<rect width="224" height="25" fill="white" transform="translate(0 9.99982)"/>
</clipPath>
</defs>
</svg>
