<svg width="224" height="25" viewBox="0 0 224 25" fill="none" xmlns="http://www.w3.org/2000/svg">
<g clip-path="url(#clip0_113_1406)">
<path d="M16.3955 18.1319C17.427 17.2802 18.1057 16.0714 18.4314 14.5604H24.4576C24.2133 16.6209 23.5618 18.4341 22.5031 20.0275C21.4445 21.6209 20.033 22.8571 18.3228 23.7088C16.6398 24.5604 14.7126 25 12.5681 25C10.2065 25 8.08919 24.478 6.1619 23.4066C4.23461 22.3352 2.74164 20.8242 1.6287 18.9286C0.542899 17.033 0 14.8901 0 12.5C0 10.1099 0.542899 7.96703 1.6287 6.07143C2.71449 4.17582 4.23461 2.66484 6.13476 1.59341C8.08919 0.521978 10.2065 0 12.5681 0C14.7126 0 16.6398 0.439561 18.35 1.31868C20.0601 2.1978 21.4445 3.40659 22.5303 5C23.5889 6.59341 24.2404 8.40659 24.4847 10.467H18.4314C18.1057 8.92857 17.427 7.74725 16.3955 6.8956C15.364 6.04396 14.0882 5.6044 12.5138 5.6044C11.238 5.6044 10.0979 5.90659 9.1207 6.51099C8.14348 7.11539 7.35628 7.93956 6.81338 8.98352C6.24333 10 5.97189 11.1813 5.97189 12.5C5.97189 13.8187 6.24333 15 6.81338 16.044C7.38342 17.0879 8.14348 17.9121 9.1207 18.5165C10.0979 19.1209 11.238 19.4231 12.5138 19.4231C14.0882 19.4231 15.364 18.9835 16.3955 18.1319Z" fill="white"/>
<path d="M56.2988 24.5056V0.494629H62.1893V19.2584H73.9159V24.5331H56.2988V24.5056Z" fill="white"/>
<path d="M76.7114 24.5056V0.494629H82.6019V19.2584H94.3285V24.5331H76.7114V24.5056Z" fill="white"/>
<path d="M101.712 24.5053H95.4414L105.539 0.356934H111.158L121.202 24.5053H114.959L113.357 20.3844H103.313L101.712 24.5053ZM105.241 15.302H111.375L108.308 7.30748L105.241 15.302Z" fill="white"/>
<path d="M143.543 14.2034C144.303 15.2748 144.683 16.4836 144.683 17.8298C144.683 19.8628 143.923 21.4836 142.402 22.6924C140.882 23.9012 138.792 24.5056 136.186 24.5056H123.754V0.494629H135.481C138.032 0.494629 140.041 1.07155 141.48 2.19793C142.918 3.35177 143.651 4.89023 143.651 6.86826C143.651 8.0221 143.353 9.09353 142.755 10.11C142.158 11.099 141.344 11.7858 140.339 12.143C141.724 12.4452 142.783 13.132 143.543 14.2034ZM134.558 10.2748C135.643 10.2748 136.485 10.0551 137.082 9.58804C137.679 9.121 137.978 8.48914 137.978 7.69243C137.978 6.95067 137.679 6.37375 137.136 5.96166C136.566 5.54957 135.698 5.35727 134.585 5.35727H129.672V10.2748H134.558ZM138.005 18.8737C138.575 18.4067 138.874 17.8023 138.874 17.0606C138.874 16.3188 138.575 15.7694 138.005 15.4122C137.435 15.0276 136.593 14.8353 135.481 14.8353H129.617V19.5606H135.372C136.566 19.5606 137.435 19.3408 138.005 18.8737Z" fill="white"/>
<path d="M165.665 1.64835C167.593 2.74725 169.086 4.25824 170.199 6.18132C171.312 8.07692 171.854 10.1923 171.854 12.5C171.854 14.8077 171.312 16.9231 170.199 18.8187C169.086 20.7143 167.593 22.2253 165.665 23.3517C163.738 24.4506 161.621 25 159.259 25C156.898 25 154.78 24.4506 152.853 23.3517C150.926 22.2527 149.433 20.7418 148.347 18.8187C147.261 16.9231 146.718 14.8077 146.718 12.5C146.718 10.1923 147.261 8.07692 148.347 6.18132C149.433 4.28571 150.953 2.77473 152.853 1.64835C154.78 0.549451 156.898 0 159.259 0C161.621 0 163.765 0.549451 165.665 1.64835ZM162.652 18.5165C163.657 17.8846 164.444 17.033 165.014 15.9615C165.584 14.8901 165.855 13.7363 165.855 12.4725C165.855 11.2363 165.557 10.0549 165.014 8.98352C164.444 7.91209 163.657 7.06044 162.652 6.42857C161.648 5.7967 160.535 5.49451 159.259 5.49451C158.011 5.49451 156.87 5.7967 155.866 6.42857C154.862 7.06044 154.075 7.91209 153.504 8.98352C152.934 10.0549 152.663 11.2088 152.663 12.4725C152.663 13.7088 152.934 14.8901 153.504 15.9615C154.075 17.033 154.862 17.8846 155.866 18.5165C156.87 19.1484 157.983 19.4506 159.259 19.4506C160.535 19.4506 161.648 19.1484 162.652 18.5165Z" fill="white"/>
<path d="M181.355 24.5056H175.465V0.494629H185.861C187.816 0.494629 189.526 0.824299 191.019 1.51111C192.485 2.19793 193.652 3.15946 194.466 4.45067C195.281 5.71441 195.688 7.2254 195.688 8.9287C195.688 10.577 195.281 12.0606 194.493 13.3518C193.706 14.643 192.593 15.6595 191.155 16.4012L197.262 24.5331H190.15L185.047 17.5825H181.382V24.5056H181.355ZM188.63 11.2913C189.417 10.6869 189.797 9.91771 189.797 8.95617C189.797 8.0221 189.417 7.25287 188.63 6.64848C187.843 6.04408 186.893 5.76935 185.726 5.76935H181.355V12.1979H185.726C186.893 12.1979 187.843 11.8957 188.63 11.2913Z" fill="white"/>
<path d="M204.537 24.5053H198.267L208.365 0.356934H213.984L224.027 24.5053H217.784L216.182 20.3844H206.139L204.537 24.5053ZM208.066 15.302H214.201L211.133 7.30748L208.066 15.302Z" fill="white"/>
<path d="M41.1519 20.9339C41.1519 20.3295 41.2877 19.7801 41.5048 19.2581C41.0977 19.3405 40.6905 19.368 40.2833 19.368C37.2702 19.368 34.6915 17.3625 33.8228 14.6152C33.0899 15.5218 31.977 16.0988 30.7011 16.0988C29.7782 16.0988 28.9096 15.7691 28.231 15.2471C29.4796 20.824 34.3929 24.9998 40.2833 24.9998C41.3691 24.9998 42.4006 24.8625 43.405 24.5878C42.0477 23.9284 41.1519 22.5548 41.1519 20.9339Z" fill="white"/>
<path d="M52.6071 12.5002C52.6071 9.12105 51.277 6.07159 49.1325 3.81885C49.1325 3.90127 49.1325 4.01116 49.1325 4.09357C49.1325 6.20896 47.531 7.93973 45.5223 8.15951C46.4723 9.34083 47.0424 10.8518 47.0424 12.5002C47.0424 14.176 46.4452 15.687 45.4951 16.8958C47.5581 17.0606 49.1868 18.8188 49.1868 20.9617C49.1868 21.0167 49.1868 21.0991 49.1868 21.154C51.3041 18.9013 52.6071 15.8518 52.6071 12.5002Z" fill="white"/>
<path d="M30.6737 7.96703C32.0581 7.96703 33.2797 8.68132 34.0126 9.75275C35.0712 7.30769 37.46 5.6044 40.2559 5.6044C40.6631 5.6044 41.0431 5.63187 41.4231 5.71429C41.206 5.21978 41.0974 4.67033 41.0974 4.09341C41.0974 2.47253 42.0475 1.07143 43.4047 0.412088C42.4004 0.137363 41.3417 0 40.2559 0C34.7726 0 30.1308 3.5989 28.5293 8.5989C29.1536 8.18681 29.8865 7.96703 30.6737 7.96703Z" fill="white"/>
<path d="M45.1694 17.8296C43.4864 17.8296 42.1021 19.2307 42.1021 20.934C42.1021 22.6373 43.4864 24.0384 45.1694 24.0384C46.8524 24.0384 48.2368 22.6373 48.2368 20.934C48.2368 19.2307 46.8524 17.8296 45.1694 17.8296Z" fill="#949396"/>
<path d="M45.1421 7.19756C46.8362 7.19756 48.2095 5.80767 48.2095 4.09316C48.2095 2.37865 46.8362 0.98877 45.1421 0.98877C43.448 0.98877 42.0747 2.37865 42.0747 4.09316C42.0747 5.80767 43.448 7.19756 45.1421 7.19756Z" fill="#5386E4"/>
<path d="M30.6738 8.92871C28.9908 8.92871 27.6064 10.3298 27.6064 12.0331C27.6064 13.7364 28.9908 15.1375 30.6738 15.1375C32.3568 15.1375 33.7412 13.7364 33.7412 12.0331C33.7683 10.3298 32.384 8.92871 30.6738 8.92871Z" fill="#0D209F"/>
<path d="M221.638 4.78022C220.336 4.78022 219.277 3.70879 219.277 2.39011C219.277 1.07143 220.336 0 221.638 0C222.941 0 224 1.07143 224 2.39011C224 3.70879 222.941 4.78022 221.638 4.78022ZM221.638 0.549451C220.634 0.549451 219.82 1.37363 219.82 2.39011C219.82 3.40659 220.634 4.23077 221.638 4.23077C222.643 4.23077 223.457 3.40659 223.457 2.39011C223.457 1.37363 222.643 0.549451 221.638 0.549451Z" fill="white"/>
<path d="M222.561 2.85702V3.29659H222.181V2.8845C222.181 2.66472 222.019 2.60977 221.72 2.60977H221.041V3.29659H220.688V1.4834H221.91C222.317 1.4834 222.589 1.64823 222.589 2.03285C222.589 2.33505 222.399 2.47241 222.127 2.49988C222.426 2.52735 222.561 2.60977 222.561 2.85702ZM221.91 2.33505C222.1 2.33505 222.236 2.22516 222.236 2.06032C222.236 1.89549 222.1 1.81307 221.91 1.81307H221.069V2.33505H221.91Z" fill="white"/>
</g>
<defs>
<clipPath id="clip0_113_1406">
<rect width="224" height="25" fill="white"/>
</clipPath>
</defs>
</svg>
